<svg width="108" height="9" viewBox="0 0 108 9" fill="none" xmlns="http://www.w3.org/2000/svg">
<path d="M5.53 0.88V2.16H1.74V3.71H5.22V4.94H1.74V6.69H5.6V8H0.19V0.88H5.53ZM10.2144 0.869999L12.9244 8H11.2844L10.7244 6.41H8.07438L7.49438 8H5.89437L8.60438 0.869999H10.2144ZM10.3444 5.27L9.40438 2.62L8.45438 5.27H10.3444ZM19.5801 0.88V5.16C19.5801 6.18 19.3334 6.93333 18.8401 7.42C18.3534 7.9 17.5901 8.14 16.5501 8.14C15.4967 8.14 14.7201 7.89667 14.2201 7.41C13.7267 6.91667 13.4801 6.16 13.4801 5.14V0.88H15.0401V5.14C15.0401 5.72 15.1501 6.15 15.3701 6.43C15.5901 6.71 15.9901 6.85 16.5701 6.85C17.1301 6.85 17.5101 6.71 17.7101 6.43C17.9167 6.15 18.0201 5.72 18.0201 5.14V0.88H19.5801ZM23.7254 8V0.88H26.6054C27.7121 0.88 28.5621 1.18667 29.1554 1.8C29.7554 2.41333 30.0554 3.29333 30.0554 4.44C30.0554 5.58667 29.7554 6.46667 29.1554 7.08C28.5621 7.69333 27.7121 8 26.6054 8H23.7254ZM25.2754 6.7H26.4154C27.7954 6.7 28.4854 5.94667 28.4854 4.44C28.4854 3.71333 28.3121 3.15667 27.9654 2.77C27.6254 2.37667 27.1087 2.18 26.4154 2.18H25.2754V6.7ZM36.4675 0.88V2.16H32.6775V3.71H36.1575V4.94H32.6775V6.69H36.5375V8H31.1275V0.88H36.4675ZM40.4051 0.88H43.4751C44.2751 0.88 44.9084 1.07333 45.3751 1.46C45.8484 1.84 46.0851 2.41 46.0851 3.17C46.0851 3.91667 45.8517 4.48333 45.3851 4.87C44.9184 5.25 44.3084 5.44 43.5551 5.44H41.9551V8H40.4051V0.88ZM41.9551 2.16V4.21H43.3451C44.1584 4.21 44.5651 3.87 44.5651 3.19C44.5651 2.50333 44.1617 2.16 43.3551 2.16H41.9551ZM52.405 0.88V2.16H48.615V3.71H52.095V4.94H48.615V6.69H52.475V8H47.065V0.88H52.405ZM58.8394 0.88V2.21H56.6994V8H55.1294V2.21H52.9894V0.88H58.8394ZM65.0027 0.88V2.16H61.2127V3.71H64.6927V4.94H61.2127V6.69H65.0727V8H59.6627V0.88H65.0027ZM66.207 0.88H69.747C70.4537 0.88 71.0304 1.04667 71.477 1.38C71.9237 1.71333 72.147 2.22 72.147 2.9C72.147 3.31333 72.047 3.67667 71.847 3.99C71.647 4.29667 71.3704 4.51667 71.017 4.65C71.6304 4.77667 71.9804 5.33 72.067 6.31C72.067 6.34333 72.0737 6.44667 72.087 6.62C72.1004 6.79333 72.1137 6.93333 72.127 7.04C72.1404 7.14 72.157 7.26333 72.177 7.41C72.197 7.55667 72.227 7.68 72.267 7.78C72.307 7.88 72.3537 7.95333 72.407 8H70.787C70.7337 7.89333 70.6937 7.76 70.667 7.6C70.6404 7.43333 70.617 7.22333 70.597 6.97C70.577 6.71 70.567 6.56667 70.567 6.54C70.5137 6.04 70.387 5.69333 70.187 5.5C69.9937 5.30667 69.647 5.21 69.147 5.21H67.757V8H66.207V0.88ZM67.757 2.11V4.08H69.237C69.6704 4.08 70.007 4.01333 70.247 3.88C70.4937 3.74 70.617 3.47 70.617 3.07C70.617 2.69667 70.497 2.44333 70.257 2.31C70.0237 2.17667 69.707 2.11 69.307 2.11H67.757ZM78.6338 3H77.1538C77.0938 2.29333 76.6438 1.94 75.8038 1.94C75.4438 1.94 75.1605 2.01333 74.9538 2.16C74.7538 2.3 74.6538 2.49667 74.6538 2.75C74.6538 2.83667 74.6672 2.91333 74.6938 2.98C74.7205 3.04667 74.7705 3.11 74.8438 3.17C74.9172 3.22333 74.9905 3.27 75.0638 3.31C75.1372 3.34333 75.2438 3.38333 75.3838 3.43C75.5305 3.47 75.6605 3.50667 75.7738 3.54C75.8938 3.57333 76.0605 3.61667 76.2738 3.67C76.4872 3.72333 76.6738 3.77333 76.8338 3.82C77.5338 4.02 78.0538 4.27 78.3938 4.57C78.7405 4.87 78.9138 5.3 78.9138 5.86C78.9138 6.26667 78.8305 6.62333 78.6638 6.93C78.4972 7.23 78.2705 7.47 77.9838 7.65C77.7038 7.82333 77.3938 7.95 77.0538 8.03C76.7205 8.11667 76.3638 8.16 75.9838 8.16C75.0172 8.16 74.2605 7.94 73.7138 7.5C73.1738 7.05333 72.9005 6.42667 72.8938 5.62H74.4438C74.4705 6.51333 75.0072 6.96 76.0538 6.96C76.4605 6.96 76.7805 6.87667 77.0138 6.71C77.2538 6.53667 77.3738 6.30333 77.3738 6.01C77.3738 5.76333 77.2638 5.58333 77.0438 5.47C76.8305 5.35667 76.3772 5.2 75.6838 5C75.5705 4.97333 75.4838 4.95 75.4238 4.93C75.1838 4.86333 75.0172 4.81667 74.9238 4.79C74.8305 4.75667 74.6805 4.70333 74.4738 4.63C74.2738 4.55667 74.1272 4.49 74.0338 4.43C73.9405 4.37 73.8238 4.28667 73.6838 4.18C73.5505 4.07333 73.4538 3.96333 73.3938 3.85C73.3338 3.73 73.2772 3.58667 73.2238 3.42C73.1772 3.24667 73.1538 3.06 73.1538 2.86C73.1538 2.21333 73.4038 1.69667 73.9038 1.31C74.4038 0.923333 75.0672 0.729999 75.8938 0.729999C76.6938 0.729999 77.3472 0.92 77.8538 1.3C78.3605 1.67333 78.6205 2.24 78.6338 3ZM79.848 0.88H83.218C83.8846 0.88 84.428 1.03 84.848 1.33C85.2746 1.62333 85.488 2.07 85.488 2.67C85.488 3.00333 85.4013 3.3 85.228 3.56C85.0546 3.81333 84.818 4.00667 84.518 4.14C85.3846 4.38667 85.818 4.96667 85.818 5.88C85.818 6.55333 85.5913 7.07667 85.138 7.45C84.6846 7.81667 84.108 8 83.408 8H79.848V0.88ZM81.368 2.09V3.76H82.788C83.5746 3.76 83.968 3.48333 83.968 2.93C83.968 2.60333 83.8613 2.38333 83.648 2.27C83.4346 2.15 83.148 2.09 82.788 2.09H81.368ZM81.368 4.82V6.76H82.938C83.3446 6.76 83.6646 6.69333 83.898 6.56C84.138 6.42667 84.258 6.17 84.258 5.79C84.258 5.40333 84.1313 5.14667 83.878 5.02C83.6313 4.88667 83.2913 4.82 82.858 4.82H81.368ZM92.959 0.88V5.16C92.959 6.18 92.7123 6.93333 92.219 7.42C91.7323 7.9 90.969 8.14 89.929 8.14C88.8757 8.14 88.099 7.89667 87.599 7.41C87.1057 6.91667 86.859 6.16 86.859 5.14V0.88H88.419V5.14C88.419 5.72 88.529 6.15 88.749 6.43C88.969 6.71 89.369 6.85 89.949 6.85C90.509 6.85 90.889 6.71 91.089 6.43C91.2957 6.15 91.399 5.72 91.399 5.14V0.88H92.959ZM94.3711 0.88H97.9111C98.6178 0.88 99.1944 1.04667 99.6411 1.38C100.088 1.71333 100.311 2.22 100.311 2.9C100.311 3.31333 100.211 3.67667 100.011 3.99C99.8111 4.29667 99.5344 4.51667 99.1811 4.65C99.7944 4.77667 100.144 5.33 100.231 6.31C100.231 6.34333 100.238 6.44667 100.251 6.62C100.264 6.79333 100.278 6.93333 100.291 7.04C100.304 7.14 100.321 7.26333 100.341 7.41C100.361 7.55667 100.391 7.68 100.431 7.78C100.471 7.88 100.518 7.95333 100.571 8H98.9511C98.8978 7.89333 98.8578 7.76 98.8311 7.6C98.8044 7.43333 98.7811 7.22333 98.7611 6.97C98.7411 6.71 98.7311 6.56667 98.7311 6.54C98.6778 6.04 98.5511 5.69333 98.3511 5.5C98.1578 5.30667 97.8111 5.21 97.3111 5.21H95.9211V8H94.3711V0.88ZM95.9211 2.11V4.08H97.4011C97.8344 4.08 98.1711 4.01333 98.4111 3.88C98.6578 3.74 98.7811 3.47 98.7811 3.07C98.7811 2.69667 98.6611 2.44333 98.4211 2.31C98.1878 2.17667 97.8711 2.11 97.4711 2.11H95.9211ZM107.868 4.15V8H106.878L106.728 7.19C106.195 7.84333 105.481 8.17 104.588 8.17C103.595 8.17 102.788 7.82667 102.168 7.14C101.548 6.45333 101.238 5.56333 101.238 4.47C101.238 3.37 101.565 2.47333 102.218 1.78C102.871 1.08 103.711 0.729999 104.738 0.729999C105.551 0.729999 106.238 0.959999 106.798 1.42C107.358 1.87333 107.685 2.47333 107.778 3.22H106.268C106.195 2.84667 106.021 2.55667 105.748 2.35C105.475 2.14333 105.131 2.04 104.718 2.04C104.125 2.04 103.658 2.25667 103.318 2.69C102.978 3.11667 102.808 3.71 102.808 4.47C102.808 5.24333 102.978 5.84667 103.318 6.28C103.665 6.70667 104.148 6.92 104.768 6.92C105.255 6.92 105.655 6.77333 105.968 6.48C106.281 6.18 106.448 5.79 106.468 5.31H104.878V4.15H107.868Z" fill="#264B52"/>
</svg>
