<svg width="166" height="26" viewBox="0 0 166 26" fill="none" xmlns="http://www.w3.org/2000/svg">
<mask id="path-1-outside-1_441_522" maskUnits="userSpaceOnUse" x="0" y="0" width="167" height="26" fill="black">
<rect fill="white" width="167" height="26"/>
<path d="M14.0279 25.416C11.9159 25.416 9.99588 25.0747 8.26788 24.392C6.56121 23.688 5.17454 22.76 4.10788 21.608C3.04121 20.4347 2.21988 19.112 1.64388 17.64C1.08921 16.1467 0.811875 14.5787 0.811875 12.936C0.811875 10.824 1.25988 8.85067 2.15588 7.016C3.05188 5.16 4.43854 3.624 6.31588 2.408C8.21454 1.192 10.4332 0.584 12.9719 0.584C15.7452 0.584 18.1559 1.256 20.2039 2.6C20.7585 2.984 21.0892 2.99467 21.1959 2.632C21.3025 2.29067 21.2705 1.608 21.0999 0.584H21.5159L23.1159 9.672H22.6999C22.2305 6.96267 21.0892 4.85067 19.2759 3.336C17.4625 1.82133 15.3399 1.064 12.9079 1.064C10.9452 1.064 9.22788 1.64 7.75588 2.792C6.28388 3.92267 5.19588 5.352 4.49188 7.08C3.78788 8.808 3.43588 10.6853 3.43588 12.712C3.43588 14.312 3.67054 15.8373 4.13988 17.288C4.63054 18.7387 5.32388 20.0507 6.21988 21.224C7.11588 22.376 8.27854 23.2933 9.70788 23.976C11.1372 24.6587 12.7372 25 14.5079 25C16.4492 25 18.3265 24.3067 20.1399 22.92C20.5025 22.664 20.6839 22.312 20.6839 21.864V16.168C20.6839 14.888 20.3532 14.088 19.6919 13.768C19.0305 13.4267 17.6652 13.256 15.5959 13.256H11.3399L11.5319 12.84H23.3079V25H22.8919C22.8919 24.2107 22.8172 23.6347 22.6679 23.272C22.5185 22.9093 22.3265 22.76 22.0919 22.824C21.8572 22.8667 21.6012 22.9627 21.3239 23.112C19.1052 24.648 16.6732 25.416 14.0279 25.416ZM25.4659 22.984C27.4925 22.984 28.8045 22.824 29.4019 22.504C30.0205 22.1627 30.3299 21.352 30.3299 20.072V5.928C30.3299 4.648 29.9992 3.848 29.3379 3.528C28.6765 3.18667 27.3112 3.016 25.2419 3.016L25.4659 2.6H36.9219C39.4819 2.6 41.5939 3.176 43.2579 4.328C44.9432 5.48 45.7859 7.10133 45.7859 9.192C45.7859 11.0053 45.1992 12.552 44.0259 13.832C42.8739 15.112 41.2419 15.912 39.1299 16.232H40.3779L43.9619 20.456C44.9645 21.6293 45.8285 22.344 46.5539 22.6C47.2792 22.856 48.3885 22.984 49.8819 22.984L49.6579 23.4H38.9379L39.1299 22.984C40.7299 22.984 41.7112 22.824 42.0739 22.504C42.4365 22.184 42.2659 21.608 41.5619 20.776L37.8819 16.424H32.9539V20.072C32.9539 21.352 33.2525 22.1627 33.8499 22.504C34.4685 22.824 35.7592 22.984 37.7219 22.984L37.5299 23.4H25.2419L25.4659 22.984ZM32.9539 16.008H36.6659C38.9699 16.008 40.6339 15.3787 41.6579 14.12C42.7032 12.8613 43.2259 11.176 43.2259 9.064C43.2259 7.10133 42.6179 5.608 41.4019 4.584C40.1859 3.53867 38.6925 3.016 36.9219 3.016C35.4285 3.016 34.3939 3.19733 33.8179 3.56C33.2419 3.90133 32.9539 4.69067 32.9539 5.928V16.008ZM48.5284 22.984C49.339 22.984 49.8937 22.984 50.1924 22.984C50.491 22.9627 50.9284 22.92 51.5044 22.856C52.0804 22.792 52.4964 22.696 52.7524 22.568C53.0084 22.4187 53.275 22.2053 53.5524 21.928C53.851 21.6293 54.0857 21.2667 54.2564 20.84L59.7924 5.672C60.2404 4.49867 60.1977 3.76267 59.6644 3.464C59.1524 3.16533 57.8724 3.016 55.8244 3.016L56.0484 2.6H62.6404L69.7124 20.52C69.947 21.096 70.235 21.5653 70.5764 21.928C70.9177 22.2693 71.3657 22.5147 71.9204 22.664C72.475 22.8133 72.9657 22.9093 73.3924 22.952C73.8404 22.9733 74.4697 22.984 75.2804 22.984L75.0564 23.4H63.1844L63.3764 22.984C65.0404 22.984 66.1817 22.8773 66.8004 22.664C67.4404 22.4507 67.6217 22.0133 67.3444 21.352L63.9524 12.712C63.3337 13.48 62.427 14.1627 61.2324 14.76C60.0377 15.3573 58.9177 15.8907 57.8724 16.36C56.8484 16.8293 56.1657 17.32 55.8244 17.832L54.5764 21.224C54.299 21.9493 54.491 22.4293 55.1524 22.664C55.835 22.8773 57.1044 22.984 58.9604 22.984L58.7684 23.4H48.3044L48.5284 22.984ZM56.1764 16.936C56.6244 16.5733 57.3924 16.1573 58.4804 15.688C59.5684 15.2187 60.603 14.7173 61.5844 14.184C62.5657 13.6293 63.3017 13 63.7924 12.296L60.7524 4.584L56.1764 16.936ZM72.1536 5.48C71.8976 4.88267 71.599 4.41333 71.2576 4.072C70.9163 3.70933 70.4576 3.464 69.8816 3.336C69.3056 3.18667 68.8256 3.10133 68.4416 3.08C68.0576 3.03733 67.439 3.016 66.5856 3.016L66.8096 2.6H78.6816L78.4896 3.016C76.8256 3.016 75.6736 3.12267 75.0336 3.336C74.415 3.54933 74.2443 3.98667 74.5216 4.648L81.1456 21.576L87.2576 4.776C87.535 4.02933 87.343 3.54933 86.6816 3.336C86.0203 3.12267 84.7616 3.016 82.9056 3.016L83.0976 2.6H93.5616L93.3376 3.016C91.3963 3.016 90.159 3.09067 89.6256 3.24C88.6443 3.51733 87.9723 4.15733 87.6096 5.16L82.0736 20.328C81.6256 21.5013 81.6576 22.2373 82.1696 22.536C82.6816 22.8347 83.9616 22.984 86.0096 22.984L85.8176 23.4H79.2256L72.1536 5.48ZM92.2159 22.984C94.2425 22.984 95.5545 22.824 96.1519 22.504C96.7705 22.1627 97.0799 21.352 97.0799 20.072V5.928C97.0799 4.648 96.7492 3.848 96.0879 3.528C95.4479 3.18667 94.0825 3.016 91.9919 3.016L92.2159 2.6H110.52L112.408 6.952L111.896 6.76C111.213 5.20267 110.403 4.18933 109.464 3.72C108.547 3.25067 106.936 3.016 104.632 3.016C102.435 3.016 101.059 3.176 100.504 3.496C99.9705 3.79467 99.7039 4.60533 99.7039 5.928V12.776H104.024C105.304 12.776 106.051 12.424 106.264 11.72C106.499 11.016 106.424 9.68267 106.04 7.72H106.456L108.28 18.28H107.864C107.501 16.2107 107.096 14.8453 106.648 14.184C106.2 13.5227 105.336 13.192 104.056 13.192H99.7039V20.072C99.7039 21.352 100.024 22.1627 100.664 22.504C101.325 22.824 102.755 22.984 104.952 22.984C107.555 22.984 109.347 22.7493 110.328 22.28C111.331 21.8107 112.173 20.7973 112.856 19.24L113.368 19.016L111.48 23.4H91.9919L92.2159 22.984ZM112.653 22.984C114.68 22.984 115.992 22.824 116.589 22.504C117.208 22.1627 117.517 21.352 117.517 20.072V5.928C117.517 4.648 117.187 3.848 116.525 3.528C115.864 3.18667 114.499 3.016 112.429 3.016L112.653 2.6H125.197L125.005 3.016C122.979 3.016 121.656 3.18667 121.037 3.528C120.44 3.848 120.141 4.648 120.141 5.928V20.072C120.141 21.352 120.483 22.1627 121.165 22.504C121.869 22.824 123.309 22.984 125.485 22.984C127.896 22.984 129.56 22.76 130.477 22.312C131.416 21.8427 132.237 20.8187 132.941 19.24V5.928C132.941 4.648 132.611 3.848 131.949 3.528C131.309 3.18667 129.955 3.016 127.885 3.016L128.077 2.6H140.653L140.429 3.016C138.403 3.016 137.08 3.18667 136.461 3.528C135.864 3.848 135.565 4.648 135.565 5.928V20.072C135.565 21.352 135.896 22.1627 136.557 22.504C137.219 22.824 138.584 22.984 140.653 22.984L140.429 23.4H132.941V20.2L131.565 23.4H112.429L112.653 22.984ZM146.614 22.984C148.641 22.984 149.953 22.824 150.55 22.504C151.169 22.1627 151.478 21.352 151.478 20.072V5.576C151.478 4.424 151.212 3.70933 150.678 3.432C150.145 3.15467 148.833 3.016 146.742 3.016C144.95 3.016 143.638 3.26133 142.806 3.752C141.996 4.22133 141.249 5.224 140.566 6.76L140.054 6.952L141.942 2.6H163.606L165.494 6.952L164.982 6.76C164.3 5.224 163.542 4.22133 162.71 3.752C161.9 3.26133 160.609 3.016 158.838 3.016C156.748 3.016 155.436 3.15467 154.902 3.432C154.369 3.70933 154.102 4.424 154.102 5.576V20.072C154.102 21.352 154.422 22.1627 155.062 22.504C155.702 22.824 157.068 22.984 159.158 22.984L158.966 23.4H146.39L146.614 22.984Z"/>
</mask>
<path d="M14.0279 25.416C11.9159 25.416 9.99588 25.0747 8.26788 24.392C6.56121 23.688 5.17454 22.76 4.10788 21.608C3.04121 20.4347 2.21988 19.112 1.64388 17.64C1.08921 16.1467 0.811875 14.5787 0.811875 12.936C0.811875 10.824 1.25988 8.85067 2.15588 7.016C3.05188 5.16 4.43854 3.624 6.31588 2.408C8.21454 1.192 10.4332 0.584 12.9719 0.584C15.7452 0.584 18.1559 1.256 20.2039 2.6C20.7585 2.984 21.0892 2.99467 21.1959 2.632C21.3025 2.29067 21.2705 1.608 21.0999 0.584H21.5159L23.1159 9.672H22.6999C22.2305 6.96267 21.0892 4.85067 19.2759 3.336C17.4625 1.82133 15.3399 1.064 12.9079 1.064C10.9452 1.064 9.22788 1.64 7.75588 2.792C6.28388 3.92267 5.19588 5.352 4.49188 7.08C3.78788 8.808 3.43588 10.6853 3.43588 12.712C3.43588 14.312 3.67054 15.8373 4.13988 17.288C4.63054 18.7387 5.32388 20.0507 6.21988 21.224C7.11588 22.376 8.27854 23.2933 9.70788 23.976C11.1372 24.6587 12.7372 25 14.5079 25C16.4492 25 18.3265 24.3067 20.1399 22.92C20.5025 22.664 20.6839 22.312 20.6839 21.864V16.168C20.6839 14.888 20.3532 14.088 19.6919 13.768C19.0305 13.4267 17.6652 13.256 15.5959 13.256H11.3399L11.5319 12.84H23.3079V25H22.8919C22.8919 24.2107 22.8172 23.6347 22.6679 23.272C22.5185 22.9093 22.3265 22.76 22.0919 22.824C21.8572 22.8667 21.6012 22.9627 21.3239 23.112C19.1052 24.648 16.6732 25.416 14.0279 25.416ZM25.4659 22.984C27.4925 22.984 28.8045 22.824 29.4019 22.504C30.0205 22.1627 30.3299 21.352 30.3299 20.072V5.928C30.3299 4.648 29.9992 3.848 29.3379 3.528C28.6765 3.18667 27.3112 3.016 25.2419 3.016L25.4659 2.6H36.9219C39.4819 2.6 41.5939 3.176 43.2579 4.328C44.9432 5.48 45.7859 7.10133 45.7859 9.192C45.7859 11.0053 45.1992 12.552 44.0259 13.832C42.8739 15.112 41.2419 15.912 39.1299 16.232H40.3779L43.9619 20.456C44.9645 21.6293 45.8285 22.344 46.5539 22.6C47.2792 22.856 48.3885 22.984 49.8819 22.984L49.6579 23.4H38.9379L39.1299 22.984C40.7299 22.984 41.7112 22.824 42.0739 22.504C42.4365 22.184 42.2659 21.608 41.5619 20.776L37.8819 16.424H32.9539V20.072C32.9539 21.352 33.2525 22.1627 33.8499 22.504C34.4685 22.824 35.7592 22.984 37.7219 22.984L37.5299 23.4H25.2419L25.4659 22.984ZM32.9539 16.008H36.6659C38.9699 16.008 40.6339 15.3787 41.6579 14.12C42.7032 12.8613 43.2259 11.176 43.2259 9.064C43.2259 7.10133 42.6179 5.608 41.4019 4.584C40.1859 3.53867 38.6925 3.016 36.9219 3.016C35.4285 3.016 34.3939 3.19733 33.8179 3.56C33.2419 3.90133 32.9539 4.69067 32.9539 5.928V16.008ZM48.5284 22.984C49.339 22.984 49.8937 22.984 50.1924 22.984C50.491 22.9627 50.9284 22.92 51.5044 22.856C52.0804 22.792 52.4964 22.696 52.7524 22.568C53.0084 22.4187 53.275 22.2053 53.5524 21.928C53.851 21.6293 54.0857 21.2667 54.2564 20.84L59.7924 5.672C60.2404 4.49867 60.1977 3.76267 59.6644 3.464C59.1524 3.16533 57.8724 3.016 55.8244 3.016L56.0484 2.6H62.6404L69.7124 20.52C69.947 21.096 70.235 21.5653 70.5764 21.928C70.9177 22.2693 71.3657 22.5147 71.9204 22.664C72.475 22.8133 72.9657 22.9093 73.3924 22.952C73.8404 22.9733 74.4697 22.984 75.2804 22.984L75.0564 23.4H63.1844L63.3764 22.984C65.0404 22.984 66.1817 22.8773 66.8004 22.664C67.4404 22.4507 67.6217 22.0133 67.3444 21.352L63.9524 12.712C63.3337 13.48 62.427 14.1627 61.2324 14.76C60.0377 15.3573 58.9177 15.8907 57.8724 16.36C56.8484 16.8293 56.1657 17.32 55.8244 17.832L54.5764 21.224C54.299 21.9493 54.491 22.4293 55.1524 22.664C55.835 22.8773 57.1044 22.984 58.9604 22.984L58.7684 23.4H48.3044L48.5284 22.984ZM56.1764 16.936C56.6244 16.5733 57.3924 16.1573 58.4804 15.688C59.5684 15.2187 60.603 14.7173 61.5844 14.184C62.5657 13.6293 63.3017 13 63.7924 12.296L60.7524 4.584L56.1764 16.936ZM72.1536 5.48C71.8976 4.88267 71.599 4.41333 71.2576 4.072C70.9163 3.70933 70.4576 3.464 69.8816 3.336C69.3056 3.18667 68.8256 3.10133 68.4416 3.08C68.0576 3.03733 67.439 3.016 66.5856 3.016L66.8096 2.6H78.6816L78.4896 3.016C76.8256 3.016 75.6736 3.12267 75.0336 3.336C74.415 3.54933 74.2443 3.98667 74.5216 4.648L81.1456 21.576L87.2576 4.776C87.535 4.02933 87.343 3.54933 86.6816 3.336C86.0203 3.12267 84.7616 3.016 82.9056 3.016L83.0976 2.6H93.5616L93.3376 3.016C91.3963 3.016 90.159 3.09067 89.6256 3.24C88.6443 3.51733 87.9723 4.15733 87.6096 5.16L82.0736 20.328C81.6256 21.5013 81.6576 22.2373 82.1696 22.536C82.6816 22.8347 83.9616 22.984 86.0096 22.984L85.8176 23.4H79.2256L72.1536 5.48ZM92.2159 22.984C94.2425 22.984 95.5545 22.824 96.1519 22.504C96.7705 22.1627 97.0799 21.352 97.0799 20.072V5.928C97.0799 4.648 96.7492 3.848 96.0879 3.528C95.4479 3.18667 94.0825 3.016 91.9919 3.016L92.2159 2.6H110.52L112.408 6.952L111.896 6.76C111.213 5.20267 110.403 4.18933 109.464 3.72C108.547 3.25067 106.936 3.016 104.632 3.016C102.435 3.016 101.059 3.176 100.504 3.496C99.9705 3.79467 99.7039 4.60533 99.7039 5.928V12.776H104.024C105.304 12.776 106.051 12.424 106.264 11.72C106.499 11.016 106.424 9.68267 106.04 7.72H106.456L108.28 18.28H107.864C107.501 16.2107 107.096 14.8453 106.648 14.184C106.2 13.5227 105.336 13.192 104.056 13.192H99.7039V20.072C99.7039 21.352 100.024 22.1627 100.664 22.504C101.325 22.824 102.755 22.984 104.952 22.984C107.555 22.984 109.347 22.7493 110.328 22.28C111.331 21.8107 112.173 20.7973 112.856 19.24L113.368 19.016L111.48 23.4H91.9919L92.2159 22.984ZM112.653 22.984C114.68 22.984 115.992 22.824 116.589 22.504C117.208 22.1627 117.517 21.352 117.517 20.072V5.928C117.517 4.648 117.187 3.848 116.525 3.528C115.864 3.18667 114.499 3.016 112.429 3.016L112.653 2.6H125.197L125.005 3.016C122.979 3.016 121.656 3.18667 121.037 3.528C120.44 3.848 120.141 4.648 120.141 5.928V20.072C120.141 21.352 120.483 22.1627 121.165 22.504C121.869 22.824 123.309 22.984 125.485 22.984C127.896 22.984 129.56 22.76 130.477 22.312C131.416 21.8427 132.237 20.8187 132.941 19.24V5.928C132.941 4.648 132.611 3.848 131.949 3.528C131.309 3.18667 129.955 3.016 127.885 3.016L128.077 2.6H140.653L140.429 3.016C138.403 3.016 137.08 3.18667 136.461 3.528C135.864 3.848 135.565 4.648 135.565 5.928V20.072C135.565 21.352 135.896 22.1627 136.557 22.504C137.219 22.824 138.584 22.984 140.653 22.984L140.429 23.4H132.941V20.2L131.565 23.4H112.429L112.653 22.984ZM146.614 22.984C148.641 22.984 149.953 22.824 150.55 22.504C151.169 22.1627 151.478 21.352 151.478 20.072V5.576C151.478 4.424 151.212 3.70933 150.678 3.432C150.145 3.15467 148.833 3.016 146.742 3.016C144.95 3.016 143.638 3.26133 142.806 3.752C141.996 4.22133 141.249 5.224 140.566 6.76L140.054 6.952L141.942 2.6H163.606L165.494 6.952L164.982 6.76C164.3 5.224 163.542 4.22133 162.71 3.752C161.9 3.26133 160.609 3.016 158.838 3.016C156.748 3.016 155.436 3.15467 154.902 3.432C154.369 3.70933 154.102 4.424 154.102 5.576V20.072C154.102 21.352 154.422 22.1627 155.062 22.504C155.702 22.824 157.068 22.984 159.158 22.984L158.966 23.4H146.39L146.614 22.984Z" fill="#264B52"/>
<path d="M8.26788 24.392L8.07719 24.8543L8.08416 24.857L8.26788 24.392ZM4.10787 21.608L3.73789 21.9443L3.74099 21.9477L4.10787 21.608ZM1.64388 17.64L1.17509 17.8141L1.17825 17.8222L1.64388 17.64ZM2.15588 7.016L2.60516 7.23542L2.60615 7.23337L2.15588 7.016ZM6.31588 2.408L6.04621 1.98694L6.04405 1.98834L6.31588 2.408ZM20.2039 2.6L20.4886 2.18878L20.4782 2.18197L20.2039 2.6ZM21.1959 2.632L20.7186 2.48284L20.7162 2.49092L21.1959 2.632ZM21.0999 0.584V0.0839996H20.5096L20.6067 0.6662L21.0999 0.584ZM21.5159 0.584L22.0083 0.497305L21.9355 0.0839996H21.5159V0.584ZM23.1159 9.672V10.172H23.7116L23.6083 9.5853L23.1159 9.672ZM22.6999 9.672L22.2072 9.75734L22.279 10.172H22.6999V9.672ZM19.2759 3.336L19.5964 2.95226L19.2759 3.336ZM7.75588 2.792L8.06047 3.18854L8.06403 3.18575L7.75588 2.792ZM4.49188 7.08L4.95492 7.26865L4.49188 7.08ZM4.13988 17.288L3.66411 17.4419L3.66623 17.4482L4.13988 17.288ZM6.21988 21.224L5.82248 21.5275L5.8252 21.531L6.21988 21.224ZM20.1399 22.92L19.8515 22.5115L19.8437 22.517L19.8362 22.5228L20.1399 22.92ZM19.6919 13.768L19.4625 14.2125L19.4741 14.2181L19.6919 13.768ZM11.3399 13.256L10.8859 13.0465L10.5584 13.756H11.3399V13.256ZM11.5319 12.84V12.34H11.212L11.0779 12.6305L11.5319 12.84ZM23.3079 12.84H23.8079V12.34H23.3079V12.84ZM23.3079 25V25.5H23.8079V25H23.3079ZM22.8919 25H22.3919V25.5H22.8919V25ZM22.6679 23.272L22.2055 23.4624V23.4624L22.6679 23.272ZM22.0919 22.824L22.1813 23.3159L22.2026 23.3121L22.2234 23.3064L22.0919 22.824ZM21.3239 23.112L21.0868 22.6718L21.0622 22.685L21.0393 22.7009L21.3239 23.112ZM14.0279 24.916C11.9702 24.916 10.1137 24.5836 8.45159 23.927L8.08416 24.857C9.8781 25.5657 11.8615 25.916 14.0279 25.916V24.916ZM8.45854 23.9298C6.80713 23.2486 5.48434 22.3586 4.47476 21.2683L3.74099 21.9477C4.86474 23.1614 6.31529 24.1274 8.07721 24.8542L8.45854 23.9298ZM4.47785 21.2717C3.45206 20.1433 2.66321 18.8728 2.1095 17.4578L1.17825 17.8222C1.77654 19.3512 2.63036 20.726 3.73791 21.9443L4.47785 21.2717ZM2.11259 17.4659C1.57926 16.03 1.31188 14.5211 1.31188 12.936H0.311875C0.311875 14.6362 0.599158 16.2633 1.17516 17.8141L2.11259 17.4659ZM1.31188 12.936C1.31188 10.8973 1.74369 8.99937 2.60516 7.23542L1.70659 6.79658C0.776057 8.70196 0.311875 10.7507 0.311875 12.936H1.31188ZM2.60615 7.23337C3.45894 5.46687 4.78046 3.99825 6.5877 2.82766L6.04405 1.98834C4.09662 3.24975 2.64481 4.85312 1.7056 6.79862L2.60615 7.23337ZM6.58554 2.82905C8.39387 1.67091 10.5164 1.084 12.9719 1.084V0.0839996C10.35 0.0839996 8.03522 0.713093 6.04621 1.98695L6.58554 2.82905ZM12.9719 1.084C15.661 1.084 17.9735 1.73436 19.9295 3.01802L20.4782 2.18197C18.3383 0.777643 15.8294 0.0839996 12.9719 0.0839996V1.084ZM19.9193 3.01109C20.2086 3.21142 20.5325 3.38544 20.8518 3.39574C21.0315 3.40154 21.2234 3.35547 21.3874 3.2235C21.5448 3.09682 21.6299 2.92829 21.6756 2.77308L20.7162 2.49092C20.7085 2.51704 20.7123 2.48317 20.7604 2.44449C20.815 2.40052 20.8696 2.39579 20.884 2.39626C20.8887 2.39641 20.8581 2.39548 20.7815 2.36132C20.7077 2.32846 20.6107 2.27353 20.4885 2.1889L19.9193 3.01109ZM21.6731 2.78114C21.7533 2.5246 21.768 2.19712 21.7513 1.84059C21.7341 1.47225 21.6802 1.02439 21.5931 0.5018L20.6067 0.6662C20.6902 1.16761 20.7377 1.57308 20.7524 1.88741C20.7677 2.21354 20.7451 2.39806 20.7186 2.48286L21.6731 2.78114ZM21.0999 1.084H21.5159V0.0839996H21.0999V1.084ZM21.0235 0.670694L22.6234 9.75869L23.6083 9.5853L22.0083 0.497305L21.0235 0.670694ZM23.1159 9.172H22.6999V10.172H23.1159V9.172ZM23.1925 9.58666C22.7065 6.78077 21.5152 4.55502 19.5964 2.95226L18.9553 3.71974C20.6632 5.14631 21.7546 7.14456 22.2072 9.75734L23.1925 9.58666ZM19.5964 2.95226C17.6903 1.36011 15.4533 0.563999 12.9079 0.563999V1.564C15.2265 1.564 17.2348 2.28255 18.9553 3.71974L19.5964 2.95226ZM12.9079 0.563999C10.8395 0.563999 9.0123 1.17379 7.44772 2.39825L8.06403 3.18575C9.44345 2.10621 11.0509 1.564 12.9079 1.564V0.563999ZM7.4513 2.39547C5.90859 3.58045 4.7661 5.08169 4.02883 6.89135L4.95492 7.26865C5.62565 5.62231 6.65916 4.26488 8.06045 3.18853L7.4513 2.39547ZM4.02883 6.89135C3.29839 8.68424 2.93588 10.6263 2.93588 12.712H3.93588C3.93588 10.7444 4.27736 8.93176 4.95492 7.26865L4.02883 6.89135ZM2.93588 12.712C2.93588 14.3617 3.17795 15.9391 3.66415 17.4419L4.6156 17.1341C4.16313 15.7356 3.93588 14.2623 3.93588 12.712H2.93588ZM3.66623 17.4482C4.17369 18.9485 4.89222 20.3092 5.82249 21.5275L6.61726 20.9205C5.75553 19.7921 5.08739 18.5288 4.61352 17.1278L3.66623 17.4482ZM5.8252 21.531C6.77289 22.7494 7.99903 23.7139 9.49239 24.4272L9.92336 23.5248C8.55805 22.8727 7.45886 22.0026 6.61455 20.917L5.8252 21.531ZM9.49239 24.4272C10.9966 25.1456 12.6715 25.5 14.5079 25.5V24.5C12.8029 24.5 11.2778 24.1717 9.92336 23.5248L9.49239 24.4272ZM14.5079 25.5C16.5775 25.5 18.559 24.7584 20.4436 23.3172L19.8362 22.5228C18.0941 23.855 16.321 24.5 14.5079 24.5V25.5ZM20.4282 23.3285C20.9251 22.9778 21.1839 22.4727 21.1839 21.864H20.1839C20.1839 22.1513 20.08 22.3502 19.8515 22.5115L20.4282 23.3285ZM21.1839 21.864V16.168H20.1839V21.864H21.1839ZM21.1839 16.168C21.1839 14.8456 20.8462 13.7711 19.9097 13.3179L19.4741 14.2181C19.8602 14.4049 20.1839 14.9304 20.1839 16.168H21.1839ZM19.9212 13.3237C19.5111 13.112 18.9341 12.9754 18.2339 12.8879C17.5232 12.799 16.6421 12.756 15.5959 12.756V13.756C16.619 13.756 17.4552 13.7983 18.1099 13.8801C18.775 13.9633 19.2113 14.0826 19.4626 14.2123L19.9212 13.3237ZM15.5959 12.756H11.3399V13.756H15.5959V12.756ZM11.7939 13.4655L11.9859 13.0495L11.0779 12.6305L10.8859 13.0465L11.7939 13.4655ZM11.5319 13.34H23.3079V12.34H11.5319V13.34ZM22.8079 12.84V25H23.8079V12.84H22.8079ZM23.3079 24.5H22.8919V25.5H23.3079V24.5ZM23.3919 25C23.3919 24.198 23.3187 23.5394 23.1302 23.0816L22.2055 23.4624C22.3157 23.73 22.3919 24.2233 22.3919 25H23.3919ZM23.1302 23.0816C23.0406 22.8641 22.9134 22.6446 22.7188 22.4933C22.4986 22.322 22.2295 22.2682 21.9603 22.3416L22.2234 23.3064C22.2162 23.3084 22.1932 23.3126 22.1618 23.3063C22.1304 23.3 22.1109 23.2873 22.1049 23.2827C22.101 23.2796 22.1115 23.2868 22.1318 23.3173C22.1521 23.3477 22.1775 23.3943 22.2055 23.4624L23.1302 23.0816ZM22.0024 22.3321C21.7026 22.3866 21.3965 22.505 21.0868 22.6718L21.5609 23.5522C21.806 23.4203 22.0118 23.3468 22.1813 23.3159L22.0024 22.3321ZM21.0393 22.7009C18.9024 24.1803 16.5693 24.916 14.0279 24.916V25.916C16.7771 25.916 19.308 25.1157 21.6085 23.5231L21.0393 22.7009ZM25.4659 22.984V22.484H25.1672L25.0256 22.747L25.4659 22.984ZM29.4019 22.504L29.638 22.9448L29.6434 22.9418L29.4019 22.504ZM29.3379 3.528L29.1085 3.97246L29.1201 3.97808L29.3379 3.528ZM25.2419 3.016L24.8016 2.77895L24.4048 3.516H25.2419V3.016ZM25.4659 2.6V2.1H25.1672L25.0256 2.36295L25.4659 2.6ZM43.2579 4.328L42.9733 4.7391L42.9757 4.74078L43.2579 4.328ZM44.0259 13.832L43.6573 13.4941L43.6542 13.4975L44.0259 13.832ZM39.1299 16.232L39.055 15.7376L39.1299 16.732V16.232ZM40.3779 16.232L40.7591 15.9085L40.6094 15.732H40.3779V16.232ZM43.9619 20.456L43.5806 20.7795L43.5818 20.7808L43.9619 20.456ZM46.5539 22.6L46.7203 22.1285V22.1285L46.5539 22.6ZM49.8819 22.984L50.3221 23.221L50.719 22.484H49.8819V22.984ZM49.6579 23.4V23.9H49.9565L50.0981 23.637L49.6579 23.4ZM38.9379 23.4L38.4839 23.1905L38.1564 23.9H38.9379V23.4ZM39.1299 22.984V22.484H38.81L38.6759 22.7745L39.1299 22.984ZM42.0739 22.504L41.7431 22.1291L42.0739 22.504ZM41.5619 20.776L41.1801 21.0988L41.1802 21.099L41.5619 20.776ZM37.8819 16.424L38.2637 16.1012L38.1139 15.924H37.8819V16.424ZM32.9539 16.424V15.924H32.4539V16.424H32.9539ZM33.8499 22.504L33.6018 22.9381L33.6109 22.9433L33.6202 22.9481L33.8499 22.504ZM37.7219 22.984L38.1759 23.1935L38.5033 22.484H37.7219V22.984ZM37.5299 23.4V23.9H37.8498L37.9839 23.6095L37.5299 23.4ZM25.2419 23.4L24.8016 23.163L24.4048 23.9H25.2419V23.4ZM32.9539 16.008H32.4539V16.508H32.9539V16.008ZM41.6579 14.12L41.2732 13.8005L41.27 13.8045L41.6579 14.12ZM41.4019 4.584L41.0759 4.96318L41.0798 4.96646L41.4019 4.584ZM33.8179 3.56L34.0729 3.9903L34.0843 3.98312L33.8179 3.56ZM25.4659 23.484C26.49 23.484 27.3467 23.4437 28.0304 23.3603C28.7008 23.2786 29.2545 23.1502 29.638 22.9447L29.1658 22.0633C28.9519 22.1778 28.551 22.2894 27.9093 22.3677C27.281 22.4443 26.4684 22.484 25.4659 22.484V23.484ZM29.6434 22.9418C30.5191 22.4587 30.8299 21.3854 30.8299 20.072H29.8299C29.8299 21.3186 29.522 21.8667 29.1603 22.0662L29.6434 22.9418ZM30.8299 20.072V5.928H29.8299V20.072H30.8299ZM30.8299 5.928C30.8299 4.60563 30.4922 3.53107 29.5557 3.07792L29.1201 3.97808C29.5062 4.16493 29.8299 4.69036 29.8299 5.928H30.8299ZM29.5672 3.08369C29.1571 2.87205 28.5801 2.73538 27.8799 2.64786C27.1692 2.55902 26.2881 2.516 25.2419 2.516V3.516C26.265 3.516 27.1012 3.55831 27.7559 3.64014C28.421 3.72328 28.8573 3.84262 29.1086 3.97231L29.5672 3.08369ZM25.6821 3.25305L25.9061 2.83705L25.0256 2.36295L24.8016 2.77895L25.6821 3.25305ZM25.4659 3.1H36.9219V2.1H25.4659V3.1ZM36.9219 3.1C39.4072 3.1 41.4126 3.65865 42.9733 4.73909L43.5425 3.9169C41.7751 2.69335 39.5566 2.1 36.9219 2.1V3.1ZM42.9757 4.74078C44.5208 5.79694 45.2859 7.26169 45.2859 9.192H46.2859C46.2859 6.94098 45.3656 5.16306 43.54 3.91522L42.9757 4.74078ZM45.2859 9.192C45.2859 10.8863 44.7421 12.3107 43.6573 13.4941L44.3945 14.1699C45.6563 12.7933 46.2859 11.1243 46.2859 9.192H45.2859ZM43.6542 13.4975C42.5969 14.6724 41.0809 15.4307 39.055 15.7376L39.2048 16.7264C41.4029 16.3933 43.1509 15.5516 44.3975 14.1665L43.6542 13.4975ZM39.1299 16.732H40.3779V15.732H39.1299V16.732ZM39.9966 16.5555L43.5806 20.7795L44.3431 20.1325L40.7591 15.9085L39.9966 16.5555ZM43.5818 20.7808C44.5947 21.9662 45.5307 22.7691 46.3875 23.0715L46.7203 22.1285C46.1264 21.9189 45.3344 21.2925 44.342 20.1312L43.5818 20.7808ZM46.3875 23.0715C47.1956 23.3567 48.3748 23.484 49.8819 23.484V22.484C48.4023 22.484 47.3628 22.3553 46.7203 22.1285L46.3875 23.0715ZM49.4416 22.747L49.2176 23.163L50.0981 23.637L50.3221 23.221L49.4416 22.747ZM49.6579 22.9H38.9379V23.9H49.6579V22.9ZM39.3919 23.6095L39.5839 23.1935L38.6759 22.7745L38.4839 23.1905L39.3919 23.6095ZM39.1299 23.484C39.9427 23.484 40.618 23.4436 41.1463 23.3575C41.6504 23.2753 42.1101 23.1389 42.4047 22.8789L41.7431 22.1291C41.675 22.1891 41.4627 22.2927 40.9854 22.3705C40.5324 22.4444 39.917 22.484 39.1299 22.484V23.484ZM42.4047 22.8789C42.5708 22.7323 42.6871 22.5435 42.7348 22.3208C42.7809 22.1055 42.7565 21.89 42.6973 21.69C42.5822 21.3016 42.3098 20.8858 41.9436 20.453L41.1802 21.099C41.518 21.4982 41.6829 21.7864 41.7385 21.974C41.7645 22.062 41.7588 22.1025 41.757 22.1112C41.7567 22.1125 41.7582 22.1157 41.7431 22.1291L42.4047 22.8789ZM41.9437 20.4532L38.2637 16.1012L37.5001 16.7468L41.1801 21.0988L41.9437 20.4532ZM37.8819 15.924H32.9539V16.924H37.8819V15.924ZM32.4539 16.424V20.072H33.4539V16.424H32.4539ZM32.4539 20.072C32.4539 21.3791 32.7508 22.4518 33.6018 22.9381L34.0979 22.0699C33.7543 21.8735 33.4539 21.3249 33.4539 20.072H32.4539ZM33.6202 22.9481C34.0096 23.1496 34.5581 23.2781 35.2204 23.3602C35.8936 23.4437 36.7292 23.484 37.7219 23.484V22.484C36.7519 22.484 35.9609 22.4443 35.3434 22.3678C34.715 22.2899 34.3088 22.1784 34.0796 22.0599L33.6202 22.9481ZM37.2679 22.7745L37.0759 23.1905L37.9839 23.6095L38.1759 23.1935L37.2679 22.7745ZM37.5299 22.9H25.2419V23.9H37.5299V22.9ZM25.6821 23.6371L25.9061 23.2211L25.0256 22.747L24.8016 23.163L25.6821 23.6371ZM32.9539 16.508H36.6659V15.508H32.9539V16.508ZM36.6659 16.508C39.0544 16.508 40.8918 15.8539 42.0457 14.4355L41.27 13.8045C40.376 14.9034 38.8854 15.508 36.6659 15.508V16.508ZM42.0425 14.4395C43.1818 13.0676 43.7259 11.2582 43.7259 9.064H42.7259C42.7259 11.0938 42.2246 12.655 41.2732 13.8005L42.0425 14.4395ZM43.7259 9.064C43.7259 6.9916 43.0788 5.34244 41.7239 4.20154L41.0798 4.96646C42.157 5.87356 42.7259 7.21107 42.7259 9.064H43.7259ZM41.7278 4.20484C40.4115 3.07324 38.7988 2.516 36.9219 2.516V3.516C38.5863 3.516 39.9603 4.00409 41.0759 4.96316L41.7278 4.20484ZM36.9219 2.516C35.4226 2.516 34.2585 2.69172 33.5515 3.13688L34.0843 3.98312C34.5293 3.70294 35.4345 3.516 36.9219 3.516V2.516ZM33.563 3.12985C32.7409 3.61698 32.4539 4.66138 32.4539 5.928H33.4539C33.4539 4.71995 33.7428 4.18568 34.0728 3.99015L33.563 3.12985ZM32.4539 5.928V16.008H33.4539V5.928H32.4539ZM48.5284 22.984V22.484H48.2297L48.0881 22.747L48.5284 22.984ZM50.1924 22.984V23.484H50.2102L50.228 23.4827L50.1924 22.984ZM52.7524 22.568L52.976 23.0152L52.9904 23.008L53.0043 22.9999L52.7524 22.568ZM53.5524 21.928L53.9059 22.2816L53.5524 21.928ZM54.2564 20.84L54.7206 21.0257L54.7234 21.0186L54.7261 21.0114L54.2564 20.84ZM59.7924 5.672L59.3252 5.49363L59.3227 5.50057L59.7924 5.672ZM59.6644 3.464L59.4124 3.89596L59.4201 3.90025L59.6644 3.464ZM55.8244 3.016L55.3841 2.77895L54.9873 3.516H55.8244V3.016ZM56.0484 2.6V2.1H55.7497L55.6081 2.36295L56.0484 2.6ZM62.6404 2.6L63.1055 2.41645L62.9806 2.1H62.6404V2.6ZM69.7124 20.52L69.2473 20.7036L69.2493 20.7086L69.7124 20.52ZM70.5764 21.928L70.2123 22.2707L70.2175 22.2762L70.2228 22.2816L70.5764 21.928ZM71.9204 22.664L71.7904 23.1468V23.1468L71.9204 22.664ZM73.3924 22.952L73.3426 23.4495L73.3556 23.4508L73.3686 23.4514L73.3924 22.952ZM75.2804 22.984L75.7206 23.2211L76.1175 22.484H75.2804V22.984ZM75.0564 23.4V23.9H75.355L75.4966 23.6371L75.0564 23.4ZM63.1844 23.4L62.7304 23.1905L62.4029 23.9H63.1844V23.4ZM63.3764 22.984V22.484H63.0565L62.9224 22.7745L63.3764 22.984ZM66.8004 22.664L66.6423 22.1896L66.6374 22.1913L66.8004 22.664ZM67.3444 21.352L66.8788 21.5348L66.8833 21.5454L67.3444 21.352ZM63.9524 12.712L64.4178 12.5293L64.1031 11.7278L63.563 12.3983L63.9524 12.712ZM61.2324 14.76L61.456 15.2072L61.2324 14.76ZM57.8724 16.36L57.6676 15.9039L57.664 15.9055L57.8724 16.36ZM55.8244 17.832L55.4084 17.5546L55.3755 17.6039L55.3551 17.6594L55.8244 17.832ZM54.5764 21.224L55.0434 21.4026L55.0456 21.3966L54.5764 21.224ZM55.1524 22.664L54.9852 23.1352L54.9941 23.1384L55.0032 23.1412L55.1524 22.664ZM58.9604 22.984L59.4144 23.1935L59.7418 22.484H58.9604V22.984ZM58.7684 23.4V23.9H59.0883L59.2224 23.6095L58.7684 23.4ZM48.3044 23.4L47.8641 23.163L47.4673 23.9H48.3044V23.4ZM56.1764 16.936L55.7075 16.7623L55.0743 18.4714L56.491 17.3246L56.1764 16.936ZM58.4804 15.688L58.6784 16.1471L58.4804 15.688ZM61.5844 14.184L61.8232 14.6234L61.8304 14.6193L61.5844 14.184ZM63.7924 12.296L64.2026 12.5819L64.3558 12.362L64.2575 12.1126L63.7924 12.296ZM60.7524 4.584L61.2175 4.40064L60.7379 3.18383L60.2835 4.4103L60.7524 4.584ZM48.5284 23.484C48.53 23.484 48.5315 23.484 48.5331 23.484C48.5347 23.484 48.5363 23.484 48.5379 23.484C48.5394 23.484 48.541 23.484 48.5426 23.484C48.5442 23.484 48.5458 23.484 48.5473 23.484C48.5489 23.484 48.5505 23.484 48.5521 23.484C48.5536 23.484 48.5552 23.484 48.5568 23.484C48.5583 23.484 48.5599 23.484 48.5615 23.484C48.563 23.484 48.5646 23.484 48.5662 23.484C48.5678 23.484 48.5693 23.484 48.5709 23.484C48.5725 23.484 48.574 23.484 48.5756 23.484C48.5771 23.484 48.5787 23.484 48.5803 23.484C48.5818 23.484 48.5834 23.484 48.585 23.484C48.5865 23.484 48.5881 23.484 48.5896 23.484C48.5912 23.484 48.5927 23.484 48.5943 23.484C48.5959 23.484 48.5974 23.484 48.599 23.484C48.6005 23.484 48.6021 23.484 48.6036 23.484C48.6052 23.484 48.6067 23.484 48.6083 23.484C48.6098 23.484 48.6114 23.484 48.6129 23.484C48.6145 23.484 48.616 23.484 48.6176 23.484C48.6191 23.484 48.6207 23.484 48.6222 23.484C48.6237 23.484 48.6253 23.484 48.6268 23.484C48.6284 23.484 48.6299 23.484 48.6315 23.484C48.633 23.484 48.6345 23.484 48.6361 23.484C48.6376 23.484 48.6392 23.484 48.6407 23.484C48.6422 23.484 48.6438 23.484 48.6453 23.484C48.6468 23.484 48.6484 23.484 48.6499 23.484C48.6514 23.484 48.653 23.484 48.6545 23.484C48.656 23.484 48.6576 23.484 48.6591 23.484C48.6606 23.484 48.6621 23.484 48.6637 23.484C48.6652 23.484 48.6667 23.484 48.6682 23.484C48.6698 23.484 48.6713 23.484 48.6728 23.484C48.6743 23.484 48.6759 23.484 48.6774 23.484C48.6789 23.484 48.6804 23.484 48.6819 23.484C48.6835 23.484 48.685 23.484 48.6865 23.484C48.688 23.484 48.6895 23.484 48.691 23.484C48.6926 23.484 48.6941 23.484 48.6956 23.484C48.6971 23.484 48.6986 23.484 48.7001 23.484C48.7016 23.484 48.7031 23.484 48.7046 23.484C48.7062 23.484 48.7077 23.484 48.7092 23.484C48.7107 23.484 48.7122 23.484 48.7137 23.484C48.7152 23.484 48.7167 23.484 48.7182 23.484C48.7197 23.484 48.7212 23.484 48.7227 23.484C48.7242 23.484 48.7257 23.484 48.7272 23.484C48.7287 23.484 48.7302 23.484 48.7317 23.484C48.7332 23.484 48.7347 23.484 48.7362 23.484C48.7377 23.484 48.7392 23.484 48.7407 23.484C48.7422 23.484 48.7437 23.484 48.7452 23.484C48.7466 23.484 48.7481 23.484 48.7496 23.484C48.7511 23.484 48.7526 23.484 48.7541 23.484C48.7556 23.484 48.7571 23.484 48.7586 23.484C48.76 23.484 48.7615 23.484 48.763 23.484C48.7645 23.484 48.766 23.484 48.7675 23.484C48.7689 23.484 48.7704 23.484 48.7719 23.484C48.7734 23.484 48.7749 23.484 48.7763 23.484C48.7778 23.484 48.7793 23.484 48.7808 23.484C48.7822 23.484 48.7837 23.484 48.7852 23.484C48.7867 23.484 48.7881 23.484 48.7896 23.484C48.7911 23.484 48.7925 23.484 48.794 23.484C48.7955 23.484 48.797 23.484 48.7984 23.484C48.7999 23.484 48.8014 23.484 48.8028 23.484C48.8043 23.484 48.8058 23.484 48.8072 23.484C48.8087 23.484 48.8102 23.484 48.8116 23.484C48.8131 23.484 48.8145 23.484 48.816 23.484C48.8175 23.484 48.8189 23.484 48.8204 23.484C48.8218 23.484 48.8233 23.484 48.8247 23.484C48.8262 23.484 48.8277 23.484 48.8291 23.484C48.8306 23.484 48.832 23.484 48.8335 23.484C48.8349 23.484 48.8364 23.484 48.8378 23.484C48.8393 23.484 48.8407 23.484 48.8422 23.484C48.8436 23.484 48.8451 23.484 48.8465 23.484C48.848 23.484 48.8494 23.484 48.8509 23.484C48.8523 23.484 48.8537 23.484 48.8552 23.484C48.8566 23.484 48.8581 23.484 48.8595 23.484C48.861 23.484 48.8624 23.484 48.8638 23.484C48.8653 23.484 48.8667 23.484 48.8681 23.484C48.8696 23.484 48.871 23.484 48.8725 23.484C48.8739 23.484 48.8753 23.484 48.8768 23.484C48.8782 23.484 48.8796 23.484 48.8811 23.484C48.8825 23.484 48.8839 23.484 48.8853 23.484C48.8868 23.484 48.8882 23.484 48.8896 23.484C48.8911 23.484 48.8925 23.484 48.8939 23.484C48.8953 23.484 48.8968 23.484 48.8982 23.484C48.8996 23.484 48.901 23.484 48.9024 23.484C48.9039 23.484 48.9053 23.484 48.9067 23.484C48.9081 23.484 48.9095 23.484 48.911 23.484C48.9124 23.484 48.9138 23.484 48.9152 23.484C48.9166 23.484 48.918 23.484 48.9194 23.484C48.9209 23.484 48.9223 23.484 48.9237 23.484C48.9251 23.484 48.9265 23.484 48.9279 23.484C48.9293 23.484 48.9307 23.484 48.9321 23.484C48.9336 23.484 48.935 23.484 48.9364 23.484C48.9378 23.484 48.9392 23.484 48.9406 23.484C48.942 23.484 48.9434 23.484 48.9448 23.484C48.9462 23.484 48.9476 23.484 48.949 23.484C48.9504 23.484 48.9518 23.484 48.9532 23.484C48.9546 23.484 48.956 23.484 48.9574 23.484C48.9588 23.484 48.9602 23.484 48.9616 23.484C48.963 23.484 48.9643 23.484 48.9657 23.484C48.9671 23.484 48.9685 23.484 48.9699 23.484C48.9713 23.484 48.9727 23.484 48.9741 23.484C48.9755 23.484 48.9769 23.484 48.9782 23.484C48.9796 23.484 48.981 23.484 48.9824 23.484C48.9838 23.484 48.9852 23.484 48.9865 23.484C48.9879 23.484 48.9893 23.484 48.9907 23.484C48.9921 23.484 48.9934 23.484 48.9948 23.484C48.9962 23.484 48.9976 23.484 48.999 23.484C49.0003 23.484 49.0017 23.484 49.0031 23.484C49.0045 23.484 49.0058 23.484 49.0072 23.484C49.0086 23.484 49.0099 23.484 49.0113 23.484C49.0127 23.484 49.0141 23.484 49.0154 23.484C49.0168 23.484 49.0182 23.484 49.0195 23.484C49.0209 23.484 49.0223 23.484 49.0236 23.484C49.025 23.484 49.0264 23.484 49.0277 23.484C49.0291 23.484 49.0304 23.484 49.0318 23.484C49.0332 23.484 49.0345 23.484 49.0359 23.484C49.0372 23.484 49.0386 23.484 49.04 23.484C49.0413 23.484 49.0427 23.484 49.044 23.484C49.0454 23.484 49.0467 23.484 49.0481 23.484C49.0494 23.484 49.0508 23.484 49.0521 23.484C49.0535 23.484 49.0548 23.484 49.0562 23.484C49.0575 23.484 49.0589 23.484 49.0602 23.484C49.0616 23.484 49.0629 23.484 49.0643 23.484C49.0656 23.484 49.067 23.484 49.0683 23.484C49.0696 23.484 49.071 23.484 49.0723 23.484C49.0737 23.484 49.075 23.484 49.0763 23.484C49.0777 23.484 49.079 23.484 49.0804 23.484C49.0817 23.484 49.083 23.484 49.0844 23.484C49.0857 23.484 49.087 23.484 49.0884 23.484C49.0897 23.484 49.091 23.484 49.0924 23.484C49.0937 23.484 49.095 23.484 49.0964 23.484C49.0977 23.484 49.099 23.484 49.1003 23.484C49.1017 23.484 49.103 23.484 49.1043 23.484C49.1057 23.484 49.107 23.484 49.1083 23.484C49.1096 23.484 49.1109 23.484 49.1123 23.484C49.1136 23.484 49.1149 23.484 49.1162 23.484C49.1175 23.484 49.1189 23.484 49.1202 23.484C49.1215 23.484 49.1228 23.484 49.1241 23.484C49.1255 23.484 49.1268 23.484 49.1281 23.484C49.1294 23.484 49.1307 23.484 49.132 23.484C49.1333 23.484 49.1346 23.484 49.136 23.484C49.1373 23.484 49.1386 23.484 49.1399 23.484C49.1412 23.484 49.1425 23.484 49.1438 23.484C49.1451 23.484 49.1464 23.484 49.1477 23.484C49.149 23.484 49.1503 23.484 49.1516 23.484C49.1529 23.484 49.1542 23.484 49.1555 23.484C49.1568 23.484 49.1581 23.484 49.1594 23.484C49.1607 23.484 49.162 23.484 49.1633 23.484C49.1646 23.484 49.1659 23.484 49.1672 23.484C49.1685 23.484 49.1698 23.484 49.1711 23.484C49.1724 23.484 49.1737 23.484 49.175 23.484C49.1762 23.484 49.1775 23.484 49.1788 23.484C49.1801 23.484 49.1814 23.484 49.1827 23.484C49.184 23.484 49.1853 23.484 49.1865 23.484C49.1878 23.484 49.1891 23.484 49.1904 23.484C49.1917 23.484 49.193 23.484 49.1942 23.484C49.1955 23.484 49.1968 23.484 49.1981 23.484C49.1994 23.484 49.2006 23.484 49.2019 23.484C49.2032 23.484 49.2045 23.484 49.2057 23.484C49.207 23.484 49.2083 23.484 49.2096 23.484C49.2108 23.484 49.2121 23.484 49.2134 23.484C49.2146 23.484 49.2159 23.484 49.2172 23.484C49.2185 23.484 49.2197 23.484 49.221 23.484C49.2223 23.484 49.2235 23.484 49.2248 23.484C49.2261 23.484 49.2273 23.484 49.2286 23.484C49.2298 23.484 49.2311 23.484 49.2324 23.484C49.2336 23.484 49.2349 23.484 49.2361 23.484C49.2374 23.484 49.2387 23.484 49.2399 23.484C49.2412 23.484 49.2424 23.484 49.2437 23.484C49.2449 23.484 49.2462 23.484 49.2475 23.484C49.2487 23.484 49.25 23.484 49.2512 23.484C49.2525 23.484 49.2537 23.484 49.255 23.484C49.2562 23.484 49.2575 23.484 49.2587 23.484C49.2599 23.484 49.2612 23.484 49.2624 23.484C49.2637 23.484 49.2649 23.484 49.2662 23.484C49.2674 23.484 49.2687 23.484 49.2699 23.484C49.2711 23.484 49.2724 23.484 49.2736 23.484C49.2749 23.484 49.2761 23.484 49.2773 23.484C49.2786 23.484 49.2798 23.484 49.2811 23.484C49.2823 23.484 49.2835 23.484 49.2848 23.484C49.286 23.484 49.2872 23.484 49.2885 23.484C49.2897 23.484 49.2909 23.484 49.2921 23.484C49.2934 23.484 49.2946 23.484 49.2958 23.484C49.2971 23.484 49.2983 23.484 49.2995 23.484C49.3007 23.484 49.302 23.484 49.3032 23.484C49.3044 23.484 49.3056 23.484 49.3069 23.484C49.3081 23.484 49.3093 23.484 49.3105 23.484C49.3117 23.484 49.313 23.484 49.3142 23.484C49.3154 23.484 49.3166 23.484 49.3178 23.484C49.319 23.484 49.3203 23.484 49.3215 23.484C49.3227 23.484 49.3239 23.484 49.3251 23.484C49.3263 23.484 49.3275 23.484 49.3287 23.484C49.33 23.484 49.3312 23.484 49.3324 23.484C49.3336 23.484 49.3348 23.484 49.336 23.484C49.3372 23.484 49.3384 23.484 49.3396 23.484C49.3408 23.484 49.342 23.484 49.3432 23.484C49.3444 23.484 49.3456 23.484 49.3468 23.484C49.348 23.484 49.3492 23.484 49.3504 23.484C49.3516 23.484 49.3528 23.484 49.354 23.484C49.3552 23.484 49.3564 23.484 49.3576 23.484C49.3588 23.484 49.36 23.484 49.3612 23.484C49.3624 23.484 49.3636 23.484 49.3648 23.484C49.366 23.484 49.3671 23.484 49.3683 23.484C49.3695 23.484 49.3707 23.484 49.3719 23.484C49.3731 23.484 49.3743 23.484 49.3755 23.484C49.3766 23.484 49.3778 23.484 49.379 23.484C49.3802 23.484 49.3814 23.484 49.3825 23.484C49.3837 23.484 49.3849 23.484 49.3861 23.484C49.3873 23.484 49.3884 23.484 49.3896 23.484C49.3908 23.484 49.392 23.484 49.3932 23.484C49.3943 23.484 49.3955 23.484 49.3967 23.484C49.3979 23.484 49.399 23.484 49.4002 23.484C49.4014 23.484 49.4025 23.484 49.4037 23.484C49.4049 23.484 49.406 23.484 49.4072 23.484C49.4084 23.484 49.4095 23.484 49.4107 23.484C49.4119 23.484 49.413 23.484 49.4142 23.484C49.4154 23.484 49.4165 23.484 49.4177 23.484C49.4188 23.484 49.42 23.484 49.4212 23.484C49.4223 23.484 49.4235 23.484 49.4246 23.484C49.4258 23.484 49.427 23.484 49.4281 23.484C49.4293 23.484 49.4304 23.484 49.4316 23.484C49.4327 23.484 49.4339 23.484 49.435 23.484C49.4362 23.484 49.4373 23.484 49.4385 23.484C49.4396 23.484 49.4408 23.484 49.4419 23.484C49.4431 23.484 49.4442 23.484 49.4454 23.484C49.4465 23.484 49.4477 23.484 49.4488 23.484C49.45 23.484 49.4511 23.484 49.4522 23.484C49.4534 23.484 49.4545 23.484 49.4557 23.484C49.4568 23.484 49.4579 23.484 49.4591 23.484C49.4602 23.484 49.4614 23.484 49.4625 23.484C49.4636 23.484 49.4648 23.484 49.4659 23.484C49.467 23.484 49.4682 23.484 49.4693 23.484C49.4704 23.484 49.4716 23.484 49.4727 23.484C49.4738 23.484 49.4749 23.484 49.4761 23.484C49.4772 23.484 49.4783 23.484 49.4795 23.484C49.4806 23.484 49.4817 23.484 49.4828 23.484C49.484 23.484 49.4851 23.484 49.4862 23.484C49.4873 23.484 49.4884 23.484 49.4896 23.484C49.4907 23.484 49.4918 23.484 49.4929 23.484C49.494 23.484 49.4952 23.484 49.4963 23.484C49.4974 23.484 49.4985 23.484 49.4996 23.484C49.5007 23.484 49.5019 23.484 49.503 23.484C49.5041 23.484 49.5052 23.484 49.5063 23.484C49.5074 23.484 49.5085 23.484 49.5096 23.484C49.5107 23.484 49.5118 23.484 49.513 23.484C49.5141 23.484 49.5152 23.484 49.5163 23.484C49.5174 23.484 49.5185 23.484 49.5196 23.484C49.5207 23.484 49.5218 23.484 49.5229 23.484C49.524 23.484 49.5251 23.484 49.5262 23.484C49.5273 23.484 49.5284 23.484 49.5295 23.484C49.5306 23.484 49.5317 23.484 49.5328 23.484C49.5339 23.484 49.535 23.484 49.5361 23.484C49.5371 23.484 49.5382 23.484 49.5393 23.484C49.5404 23.484 49.5415 23.484 49.5426 23.484C49.5437 23.484 49.5448 23.484 49.5459 23.484C49.547 23.484 49.548 23.484 49.5491 23.484C49.5502 23.484 49.5513 23.484 49.5524 23.484C49.5535 23.484 49.5545 23.484 49.5556 23.484C49.5567 23.484 49.5578 23.484 49.5589 23.484C49.5599 23.484 49.561 23.484 49.5621 23.484C49.5632 23.484 49.5643 23.484 49.5653 23.484C49.5664 23.484 49.5675 23.484 49.5686 23.484C49.5696 23.484 49.5707 23.484 49.5718 23.484C49.5728 23.484 49.5739 23.484 49.575 23.484C49.576 23.484 49.5771 23.484 49.5782 23.484C49.5793 23.484 49.5803 23.484 49.5814 23.484C49.5825 23.484 49.5835 23.484 49.5846 23.484C49.5856 23.484 49.5867 23.484 49.5878 23.484C49.5888 23.484 49.5899 23.484 49.591 23.484C49.592 23.484 49.5931 23.484 49.5941 23.484C49.5952 23.484 49.5962 23.484 49.5973 23.484C49.5984 23.484 49.5994 23.484 49.6005 23.484C49.6015 23.484 49.6026 23.484 49.6036 23.484C49.6047 23.484 49.6057 23.484 49.6068 23.484C49.6078 23.484 49.6089 23.484 49.6099 23.484C49.611 23.484 49.612 23.484 49.6131 23.484C49.6141 23.484 49.6152 23.484 49.6162 23.484C49.6172 23.484 49.6183 23.484 49.6193 23.484C49.6204 23.484 49.6214 23.484 49.6225 23.484C49.6235 23.484 49.6245 23.484 49.6256 23.484C49.6266 23.484 49.6277 23.484 49.6287 23.484C49.6297 23.484 49.6308 23.484 49.6318 23.484C49.6328 23.484 49.6339 23.484 49.6349 23.484C49.6359 23.484 49.637 23.484 49.638 23.484C49.639 23.484 49.64 23.484 49.6411 23.484C49.6421 23.484 49.6431 23.484 49.6442 23.484C49.6452 23.484 49.6462 23.484 49.6472 23.484C49.6483 23.484 49.6493 23.484 49.6503 23.484C49.6513 23.484 49.6524 23.484 49.6534 23.484C49.6544 23.484 49.6554 23.484 49.6564 23.484C49.6575 23.484 49.6585 23.484 49.6595 23.484C49.6605 23.484 49.6615 23.484 49.6625 23.484C49.6636 23.484 49.6646 23.484 49.6656 23.484C49.6666 23.484 49.6676 23.484 49.6686 23.484C49.6696 23.484 49.6706 23.484 49.6716 23.484C49.6727 23.484 49.6737 23.484 49.6747 23.484C49.6757 23.484 49.6767 23.484 49.6777 23.484C49.6787 23.484 49.6797 23.484 49.6807 23.484C49.6817 23.484 49.6827 23.484 49.6837 23.484C49.6847 23.484 49.6857 23.484 49.6867 23.484C49.6877 23.484 49.6887 23.484 49.6897 23.484C49.6907 23.484 49.6917 23.484 49.6927 23.484C49.6937 23.484 49.6947 23.484 49.6957 23.484C49.6967 23.484 49.6977 23.484 49.6987 23.484C49.6996 23.484 49.7006 23.484 49.7016 23.484C49.7026 23.484 49.7036 23.484 49.7046 23.484C49.7056 23.484 49.7066 23.484 49.7076 23.484C49.7085 23.484 49.7095 23.484 49.7105 23.484C49.7115 23.484 49.7125 23.484 49.7135 23.484C49.7144 23.484 49.7154 23.484 49.7164 23.484C49.7174 23.484 49.7184 23.484 49.7193 23.484C49.7203 23.484 49.7213 23.484 49.7223 23.484C49.7232 23.484 49.7242 23.484 49.7252 23.484C49.7262 23.484 49.7271 23.484 49.7281 23.484C49.7291 23.484 49.73 23.484 49.731 23.484C49.732 23.484 49.733 23.484 49.7339 23.484C49.7349 23.484 49.7359 23.484 49.7368 23.484C49.7378 23.484 49.7388 23.484 49.7397 23.484C49.7407 23.484 49.7416 23.484 49.7426 23.484C49.7436 23.484 49.7445 23.484 49.7455 23.484C49.7465 23.484 49.7474 23.484 49.7484 23.484C49.7493 23.484 49.7503 23.484 49.7512 23.484C49.7522 23.484 49.7532 23.484 49.7541 23.484C49.7551 23.484 49.756 23.484 49.757 23.484C49.7579 23.484 49.7589 23.484 49.7598 23.484C49.7608 23.484 49.7617 23.484 49.7627 23.484C49.7636 23.484 49.7646 23.484 49.7655 23.484C49.7665 23.484 49.7674 23.484 49.7684 23.484C49.7693 23.484 49.7702 23.484 49.7712 23.484C49.7721 23.484 49.7731 23.484 49.774 23.484C49.775 23.484 49.7759 23.484 49.7768 23.484C49.7778 23.484 49.7787 23.484 49.7796 23.484C49.7806 23.484 49.7815 23.484 49.7825 23.484C49.7834 23.484 49.7843 23.484 49.7853 23.484C49.7862 23.484 49.7871 23.484 49.7881 23.484C49.789 23.484 49.7899 23.484 49.7908 23.484C49.7918 23.484 49.7927 23.484 49.7936 23.484C49.7946 23.484 49.7955 23.484 49.7964 23.484C49.7973 23.484 49.7983 23.484 49.7992 23.484C49.8001 23.484 49.801 23.484 49.8019 23.484C49.8029 23.484 49.8038 23.484 49.8047 23.484C49.8056 23.484 49.8065 23.484 49.8075 23.484C49.8084 23.484 49.8093 23.484 49.8102 23.484C49.8111 23.484 49.812 23.484 49.813 23.484C49.8139 23.484 49.8148 23.484 49.8157 23.484C49.8166 23.484 49.8175 23.484 49.8184 23.484C49.8193 23.484 49.8202 23.484 49.8211 23.484C49.8221 23.484 49.823 23.484 49.8239 23.484C49.8248 23.484 49.8257 23.484 49.8266 23.484C49.8275 23.484 49.8284 23.484 49.8293 23.484C49.8302 23.484 49.8311 23.484 49.832 23.484C49.8329 23.484 49.8338 23.484 49.8347 23.484C49.8356 23.484 49.8365 23.484 49.8374 23.484C49.8383 23.484 49.8392 23.484 49.8401 23.484C49.841 23.484 49.8418 23.484 49.8427 23.484C49.8436 23.484 49.8445 23.484 49.8454 23.484C49.8463 23.484 49.8472 23.484 49.8481 23.484C49.849 23.484 49.8499 23.484 49.8507 23.484C49.8516 23.484 49.8525 23.484 49.8534 23.484C49.8543 23.484 49.8552 23.484 49.856 23.484C49.8569 23.484 49.8578 23.484 49.8587 23.484C49.8596 23.484 49.8604 23.484 49.8613 23.484C49.8622 23.484 49.8631 23.484 49.864 23.484C49.8648 23.484 49.8657 23.484 49.8666 23.484C49.8675 23.484 49.8683 23.484 49.8692 23.484C49.8701 23.484 49.8709 23.484 49.8718 23.484C49.8727 23.484 49.8736 23.484 49.8744 23.484C49.8753 23.484 49.8762 23.484 49.877 23.484C49.8779 23.484 49.8788 23.484 49.8796 23.484C49.8805 23.484 49.8814 23.484 49.8822 23.484C49.8831 23.484 49.8839 23.484 49.8848 23.484C49.8857 23.484 49.8865 23.484 49.8874 23.484C49.8882 23.484 49.8891 23.484 49.89 23.484C49.8908 23.484 49.8917 23.484 49.8925 23.484C49.8934 23.484 49.8942 23.484 49.8951 23.484C49.8959 23.484 49.8968 23.484 49.8976 23.484C49.8985 23.484 49.8993 23.484 49.9002 23.484C49.901 23.484 49.9019 23.484 49.9027 23.484C49.9036 23.484 49.9044 23.484 49.9053 23.484C49.9061 23.484 49.907 23.484 49.9078 23.484C49.9086 23.484 49.9095 23.484 49.9103 23.484C49.9112 23.484 49.912 23.484 49.9128 23.484C49.9137 23.484 49.9145 23.484 49.9154 23.484C49.9162 23.484 49.917 23.484 49.9179 23.484C49.9187 23.484 49.9195 23.484 49.9204 23.484C49.9212 23.484 49.922 23.484 49.9229 23.484C49.9237 23.484 49.9245 23.484 49.9254 23.484C49.9262 23.484 49.927 23.484 49.9278 23.484C49.9287 23.484 49.9295 23.484 49.9303 23.484C49.9312 23.484 49.932 23.484 49.9328 23.484C49.9336 23.484 49.9344 23.484 49.9353 23.484C49.9361 23.484 49.9369 23.484 49.9377 23.484C49.9386 23.484 49.9394 23.484 49.9402 23.484C49.941 23.484 49.9418 23.484 49.9426 23.484C49.9435 23.484 49.9443 23.484 49.9451 23.484C49.9459 23.484 49.9467 23.484 49.9475 23.484C49.9483 23.484 49.9491 23.484 49.95 23.484C49.9508 23.484 49.9516 23.484 49.9524 23.484C49.9532 23.484 49.954 23.484 49.9548 23.484C49.9556 23.484 49.9564 23.484 49.9572 23.484C49.958 23.484 49.9588 23.484 49.9596 23.484C49.9604 23.484 49.9612 23.484 49.962 23.484C49.9628 23.484 49.9636 23.484 49.9644 23.484C49.9652 23.484 49.966 23.484 49.9668 23.484C49.9676 23.484 49.9684 23.484 49.9692 23.484C49.97 23.484 49.9708 23.484 49.9716 23.484C49.9724 23.484 49.9732 23.484 49.974 23.484C49.9747 23.484 49.9755 23.484 49.9763 23.484C49.9771 23.484 49.9779 23.484 49.9787 23.484C49.9795 23.484 49.9803 23.484 49.981 23.484C49.9818 23.484 49.9826 23.484 49.9834 23.484C49.9842 23.484 49.985 23.484 49.9857 23.484C49.9865 23.484 49.9873 23.484 49.9881 23.484C49.9889 23.484 49.9896 23.484 49.9904 23.484C49.9912 23.484 49.992 23.484 49.9927 23.484C49.9935 23.484 49.9943 23.484 49.9951 23.484C49.9958 23.484 49.9966 23.484 49.9974 23.484C49.9981 23.484 49.9989 23.484 49.9997 23.484C50.0005 23.484 50.0012 23.484 50.002 23.484C50.0028 23.484 50.0035 23.484 50.0043 23.484C50.0051 23.484 50.0058 23.484 50.0066 23.484C50.0073 23.484 50.0081 23.484 50.0089 23.484C50.0096 23.484 50.0104 23.484 50.0111 23.484C50.0119 23.484 50.0127 23.484 50.0134 23.484C50.0142 23.484 50.0149 23.484 50.0157 23.484C50.0164 23.484 50.0172 23.484 50.018 23.484C50.0187 23.484 50.0195 23.484 50.0202 23.484C50.021 23.484 50.0217 23.484 50.0225 23.484C50.0232 23.484 50.024 23.484 50.0247 23.484C50.0255 23.484 50.0262 23.484 50.0269 23.484C50.0277 23.484 50.0284 23.484 50.0292 23.484C50.0299 23.484 50.0307 23.484 50.0314 23.484C50.0321 23.484 50.0329 23.484 50.0336 23.484C50.0344 23.484 50.0351 23.484 50.0358 23.484C50.0366 23.484 50.0373 23.484 50.0381 23.484C50.0388 23.484 50.0395 23.484 50.0403 23.484C50.041 23.484 50.0417 23.484 50.0425 23.484C50.0432 23.484 50.0439 23.484 50.0446 23.484C50.0454 23.484 50.0461 23.484 50.0468 23.484C50.0476 23.484 50.0483 23.484 50.049 23.484C50.0497 23.484 50.0505 23.484 50.0512 23.484C50.0519 23.484 50.0526 23.484 50.0534 23.484C50.0541 23.484 50.0548 23.484 50.0555 23.484C50.0562 23.484 50.057 23.484 50.0577 23.484C50.0584 23.484 50.0591 23.484 50.0598 23.484C50.0605 23.484 50.0613 23.484 50.062 23.484C50.0627 23.484 50.0634 23.484 50.0641 23.484C50.0648 23.484 50.0655 23.484 50.0662 23.484C50.067 23.484 50.0677 23.484 50.0684 23.484C50.0691 23.484 50.0698 23.484 50.0705 23.484C50.0712 23.484 50.0719 23.484 50.0726 23.484C50.0733 23.484 50.074 23.484 50.0747 23.484C50.0754 23.484 50.0761 23.484 50.0768 23.484C50.0775 23.484 50.0782 23.484 50.0789 23.484C50.0796 23.484 50.0803 23.484 50.081 23.484C50.0817 23.484 50.0824 23.484 50.0831 23.484C50.0838 23.484 50.0845 23.484 50.0852 23.484C50.0859 23.484 50.0866 23.484 50.0873 23.484C50.088 23.484 50.0886 23.484 50.0893 23.484C50.09 23.484 50.0907 23.484 50.0914 23.484C50.0921 23.484 50.0928 23.484 50.0935 23.484C50.0941 23.484 50.0948 23.484 50.0955 23.484C50.0962 23.484 50.0969 23.484 50.0975 23.484C50.0982 23.484 50.0989 23.484 50.0996 23.484C50.1003 23.484 50.1009 23.484 50.1016 23.484C50.1023 23.484 50.103 23.484 50.1037 23.484C50.1043 23.484 50.105 23.484 50.1057 23.484C50.1063 23.484 50.107 23.484 50.1077 23.484C50.1084 23.484 50.109 23.484 50.1097 23.484C50.1104 23.484 50.111 23.484 50.1117 23.484C50.1124 23.484 50.113 23.484 50.1137 23.484C50.1144 23.484 50.115 23.484 50.1157 23.484C50.1164 23.484 50.117 23.484 50.1177 23.484C50.1184 23.484 50.119 23.484 50.1197 23.484C50.1203 23.484 50.121 23.484 50.1216 23.484C50.1223 23.484 50.123 23.484 50.1236 23.484C50.1243 23.484 50.1249 23.484 50.1256 23.484C50.1262 23.484 50.1269 23.484 50.1275 23.484C50.1282 23.484 50.1288 23.484 50.1295 23.484C50.1301 23.484 50.1308 23.484 50.1314 23.484C50.1321 23.484 50.1327 23.484 50.1334 23.484C50.134 23.484 50.1347 23.484 50.1353 23.484C50.136 23.484 50.1366 23.484 50.1372 23.484C50.1379 23.484 50.1385 23.484 50.1392 23.484C50.1398 23.484 50.1404 23.484 50.1411 23.484C50.1417 23.484 50.1424 23.484 50.143 23.484C50.1436 23.484 50.1443 23.484 50.1449 23.484C50.1455 23.484 50.1462 23.484 50.1468 23.484C50.1474 23.484 50.1481 23.484 50.1487 23.484C50.1493 23.484 50.1499 23.484 50.1506 23.484C50.1512 23.484 50.1518 23.484 50.1525 23.484C50.1531 23.484 50.1537 23.484 50.1543 23.484C50.155 23.484 50.1556 23.484 50.1562 23.484C50.1568 23.484 50.1574 23.484 50.1581 23.484C50.1587 23.484 50.1593 23.484 50.1599 23.484C50.1605 23.484 50.1612 23.484 50.1618 23.484C50.1624 23.484 50.163 23.484 50.1636 23.484C50.1642 23.484 50.1649 23.484 50.1655 23.484C50.1661 23.484 50.1667 23.484 50.1673 23.484C50.1679 23.484 50.1685 23.484 50.1691 23.484C50.1697 23.484 50.1703 23.484 50.171 23.484C50.1716 23.484 50.1722 23.484 50.1728 23.484C50.1734 23.484 50.174 23.484 50.1746 23.484C50.1752 23.484 50.1758 23.484 50.1764 23.484C50.177 23.484 50.1776 23.484 50.1782 23.484C50.1788 23.484 50.1794 23.484 50.18 23.484C50.1806 23.484 50.1812 23.484 50.1818 23.484C50.1824 23.484 50.183 23.484 50.1836 23.484C50.1841 23.484 50.1847 23.484 50.1853 23.484C50.1859 23.484 50.1865 23.484 50.1871 23.484C50.1877 23.484 50.1883 23.484 50.1889 23.484C50.1894 23.484 50.19 23.484 50.1906 23.484C50.1912 23.484 50.1918 23.484 50.1924 23.484V22.484C50.1918 22.484 50.1912 22.484 50.1906 22.484C50.19 22.484 50.1894 22.484 50.1889 22.484C50.1883 22.484 50.1877 22.484 50.1871 22.484C50.1865 22.484 50.1859 22.484 50.1853 22.484C50.1847 22.484 50.1841 22.484 50.1836 22.484C50.183 22.484 50.1824 22.484 50.1818 22.484C50.1812 22.484 50.1806 22.484 50.18 22.484C50.1794 22.484 50.1788 22.484 50.1782 22.484C50.1776 22.484 50.177 22.484 50.1764 22.484C50.1758 22.484 50.1752 22.484 50.1746 22.484C50.174 22.484 50.1734 22.484 50.1728 22.484C50.1722 22.484 50.1716 22.484 50.171 22.484C50.1703 22.484 50.1697 22.484 50.1691 22.484C50.1685 22.484 50.1679 22.484 50.1673 22.484C50.1667 22.484 50.1661 22.484 50.1655 22.484C50.1649 22.484 50.1642 22.484 50.1636 22.484C50.163 22.484 50.1624 22.484 50.1618 22.484C50.1612 22.484 50.1605 22.484 50.1599 22.484C50.1593 22.484 50.1587 22.484 50.1581 22.484C50.1574 22.484 50.1568 22.484 50.1562 22.484C50.1556 22.484 50.155 22.484 50.1543 22.484C50.1537 22.484 50.1531 22.484 50.1525 22.484C50.1518 22.484 50.1512 22.484 50.1506 22.484C50.1499 22.484 50.1493 22.484 50.1487 22.484C50.1481 22.484 50.1474 22.484 50.1468 22.484C50.1462 22.484 50.1455 22.484 50.1449 22.484C50.1443 22.484 50.1436 22.484 50.143 22.484C50.1424 22.484 50.1417 22.484 50.1411 22.484C50.1404 22.484 50.1398 22.484 50.1392 22.484C50.1385 22.484 50.1379 22.484 50.1372 22.484C50.1366 22.484 50.136 22.484 50.1353 22.484C50.1347 22.484 50.134 22.484 50.1334 22.484C50.1327 22.484 50.1321 22.484 50.1314 22.484C50.1308 22.484 50.1301 22.484 50.1295 22.484C50.1288 22.484 50.1282 22.484 50.1275 22.484C50.1269 22.484 50.1262 22.484 50.1256 22.484C50.1249 22.484 50.1243 22.484 50.1236 22.484C50.123 22.484 50.1223 22.484 50.1216 22.484C50.121 22.484 50.1203 22.484 50.1197 22.484C50.119 22.484 50.1184 22.484 50.1177 22.484C50.117 22.484 50.1164 22.484 50.1157 22.484C50.115 22.484 50.1144 22.484 50.1137 22.484C50.113 22.484 50.1124 22.484 50.1117 22.484C50.111 22.484 50.1104 22.484 50.1097 22.484C50.109 22.484 50.1084 22.484 50.1077 22.484C50.107 22.484 50.1063 22.484 50.1057 22.484C50.105 22.484 50.1043 22.484 50.1037 22.484C50.103 22.484 50.1023 22.484 50.1016 22.484C50.1009 22.484 50.1003 22.484 50.0996 22.484C50.0989 22.484 50.0982 22.484 50.0975 22.484C50.0969 22.484 50.0962 22.484 50.0955 22.484C50.0948 22.484 50.0941 22.484 50.0935 22.484C50.0928 22.484 50.0921 22.484 50.0914 22.484C50.0907 22.484 50.09 22.484 50.0893 22.484C50.0886 22.484 50.088 22.484 50.0873 22.484C50.0866 22.484 50.0859 22.484 50.0852 22.484C50.0845 22.484 50.0838 22.484 50.0831 22.484C50.0824 22.484 50.0817 22.484 50.081 22.484C50.0803 22.484 50.0796 22.484 50.0789 22.484C50.0782 22.484 50.0775 22.484 50.0768 22.484C50.0761 22.484 50.0754 22.484 50.0747 22.484C50.074 22.484 50.0733 22.484 50.0726 22.484C50.0719 22.484 50.0712 22.484 50.0705 22.484C50.0698 22.484 50.0691 22.484 50.0684 22.484C50.0677 22.484 50.067 22.484 50.0662 22.484C50.0655 22.484 50.0648 22.484 50.0641 22.484C50.0634 22.484 50.0627 22.484 50.062 22.484C50.0613 22.484 50.0605 22.484 50.0598 22.484C50.0591 22.484 50.0584 22.484 50.0577 22.484C50.057 22.484 50.0562 22.484 50.0555 22.484C50.0548 22.484 50.0541 22.484 50.0534 22.484C50.0526 22.484 50.0519 22.484 50.0512 22.484C50.0505 22.484 50.0497 22.484 50.049 22.484C50.0483 22.484 50.0476 22.484 50.0468 22.484C50.0461 22.484 50.0454 22.484 50.0446 22.484C50.0439 22.484 50.0432 22.484 50.0425 22.484C50.0417 22.484 50.041 22.484 50.0403 22.484C50.0395 22.484 50.0388 22.484 50.0381 22.484C50.0373 22.484 50.0366 22.484 50.0358 22.484C50.0351 22.484 50.0344 22.484 50.0336 22.484C50.0329 22.484 50.0321 22.484 50.0314 22.484C50.0307 22.484 50.0299 22.484 50.0292 22.484C50.0284 22.484 50.0277 22.484 50.0269 22.484C50.0262 22.484 50.0255 22.484 50.0247 22.484C50.024 22.484 50.0232 22.484 50.0225 22.484C50.0217 22.484 50.021 22.484 50.0202 22.484C50.0195 22.484 50.0187 22.484 50.018 22.484C50.0172 22.484 50.0164 22.484 50.0157 22.484C50.0149 22.484 50.0142 22.484 50.0134 22.484C50.0127 22.484 50.0119 22.484 50.0111 22.484C50.0104 22.484 50.0096 22.484 50.0089 22.484C50.0081 22.484 50.0073 22.484 50.0066 22.484C50.0058 22.484 50.0051 22.484 50.0043 22.484C50.0035 22.484 50.0028 22.484 50.002 22.484C50.0012 22.484 50.0005 22.484 49.9997 22.484C49.9989 22.484 49.9981 22.484 49.9974 22.484C49.9966 22.484 49.9958 22.484 49.9951 22.484C49.9943 22.484 49.9935 22.484 49.9927 22.484C49.992 22.484 49.9912 22.484 49.9904 22.484C49.9896 22.484 49.9889 22.484 49.9881 22.484C49.9873 22.484 49.9865 22.484 49.9857 22.484C49.985 22.484 49.9842 22.484 49.9834 22.484C49.9826 22.484 49.9818 22.484 49.981 22.484C49.9803 22.484 49.9795 22.484 49.9787 22.484C49.9779 22.484 49.9771 22.484 49.9763 22.484C49.9755 22.484 49.9747 22.484 49.974 22.484C49.9732 22.484 49.9724 22.484 49.9716 22.484C49.9708 22.484 49.97 22.484 49.9692 22.484C49.9684 22.484 49.9676 22.484 49.9668 22.484C49.966 22.484 49.9652 22.484 49.9644 22.484C49.9636 22.484 49.9628 22.484 49.962 22.484C49.9612 22.484 49.9604 22.484 49.9596 22.484C49.9588 22.484 49.958 22.484 49.9572 22.484C49.9564 22.484 49.9556 22.484 49.9548 22.484C49.954 22.484 49.9532 22.484 49.9524 22.484C49.9516 22.484 49.9508 22.484 49.95 22.484C49.9491 22.484 49.9483 22.484 49.9475 22.484C49.9467 22.484 49.9459 22.484 49.9451 22.484C49.9443 22.484 49.9435 22.484 49.9426 22.484C49.9418 22.484 49.941 22.484 49.9402 22.484C49.9394 22.484 49.9386 22.484 49.9377 22.484C49.9369 22.484 49.9361 22.484 49.9353 22.484C49.9344 22.484 49.9336 22.484 49.9328 22.484C49.932 22.484 49.9312 22.484 49.9303 22.484C49.9295 22.484 49.9287 22.484 49.9278 22.484C49.927 22.484 49.9262 22.484 49.9254 22.484C49.9245 22.484 49.9237 22.484 49.9229 22.484C49.922 22.484 49.9212 22.484 49.9204 22.484C49.9195 22.484 49.9187 22.484 49.9179 22.484C49.917 22.484 49.9162 22.484 49.9154 22.484C49.9145 22.484 49.9137 22.484 49.9128 22.484C49.912 22.484 49.9112 22.484 49.9103 22.484C49.9095 22.484 49.9086 22.484 49.9078 22.484C49.907 22.484 49.9061 22.484 49.9053 22.484C49.9044 22.484 49.9036 22.484 49.9027 22.484C49.9019 22.484 49.901 22.484 49.9002 22.484C49.8993 22.484 49.8985 22.484 49.8976 22.484C49.8968 22.484 49.8959 22.484 49.8951 22.484C49.8942 22.484 49.8934 22.484 49.8925 22.484C49.8917 22.484 49.8908 22.484 49.89 22.484C49.8891 22.484 49.8882 22.484 49.8874 22.484C49.8865 22.484 49.8857 22.484 49.8848 22.484C49.8839 22.484 49.8831 22.484 49.8822 22.484C49.8814 22.484 49.8805 22.484 49.8796 22.484C49.8788 22.484 49.8779 22.484 49.877 22.484C49.8762 22.484 49.8753 22.484 49.8744 22.484C49.8736 22.484 49.8727 22.484 49.8718 22.484C49.8709 22.484 49.8701 22.484 49.8692 22.484C49.8683 22.484 49.8675 22.484 49.8666 22.484C49.8657 22.484 49.8648 22.484 49.864 22.484C49.8631 22.484 49.8622 22.484 49.8613 22.484C49.8604 22.484 49.8596 22.484 49.8587 22.484C49.8578 22.484 49.8569 22.484 49.856 22.484C49.8552 22.484 49.8543 22.484 49.8534 22.484C49.8525 22.484 49.8516 22.484 49.8507 22.484C49.8499 22.484 49.849 22.484 49.8481 22.484C49.8472 22.484 49.8463 22.484 49.8454 22.484C49.8445 22.484 49.8436 22.484 49.8427 22.484C49.8418 22.484 49.841 22.484 49.8401 22.484C49.8392 22.484 49.8383 22.484 49.8374 22.484C49.8365 22.484 49.8356 22.484 49.8347 22.484C49.8338 22.484 49.8329 22.484 49.832 22.484C49.8311 22.484 49.8302 22.484 49.8293 22.484C49.8284 22.484 49.8275 22.484 49.8266 22.484C49.8257 22.484 49.8248 22.484 49.8239 22.484C49.823 22.484 49.8221 22.484 49.8211 22.484C49.8202 22.484 49.8193 22.484 49.8184 22.484C49.8175 22.484 49.8166 22.484 49.8157 22.484C49.8148 22.484 49.8139 22.484 49.813 22.484C49.812 22.484 49.8111 22.484 49.8102 22.484C49.8093 22.484 49.8084 22.484 49.8075 22.484C49.8065 22.484 49.8056 22.484 49.8047 22.484C49.8038 22.484 49.8029 22.484 49.8019 22.484C49.801 22.484 49.8001 22.484 49.7992 22.484C49.7983 22.484 49.7973 22.484 49.7964 22.484C49.7955 22.484 49.7946 22.484 49.7936 22.484C49.7927 22.484 49.7918 22.484 49.7908 22.484C49.7899 22.484 49.789 22.484 49.7881 22.484C49.7871 22.484 49.7862 22.484 49.7853 22.484C49.7843 22.484 49.7834 22.484 49.7825 22.484C49.7815 22.484 49.7806 22.484 49.7796 22.484C49.7787 22.484 49.7778 22.484 49.7768 22.484C49.7759 22.484 49.775 22.484 49.774 22.484C49.7731 22.484 49.7721 22.484 49.7712 22.484C49.7702 22.484 49.7693 22.484 49.7684 22.484C49.7674 22.484 49.7665 22.484 49.7655 22.484C49.7646 22.484 49.7636 22.484 49.7627 22.484C49.7617 22.484 49.7608 22.484 49.7598 22.484C49.7589 22.484 49.7579 22.484 49.757 22.484C49.756 22.484 49.7551 22.484 49.7541 22.484C49.7532 22.484 49.7522 22.484 49.7512 22.484C49.7503 22.484 49.7493 22.484 49.7484 22.484C49.7474 22.484 49.7465 22.484 49.7455 22.484C49.7445 22.484 49.7436 22.484 49.7426 22.484C49.7416 22.484 49.7407 22.484 49.7397 22.484C49.7388 22.484 49.7378 22.484 49.7368 22.484C49.7359 22.484 49.7349 22.484 49.7339 22.484C49.733 22.484 49.732 22.484 49.731 22.484C49.73 22.484 49.7291 22.484 49.7281 22.484C49.7271 22.484 49.7262 22.484 49.7252 22.484C49.7242 22.484 49.7232 22.484 49.7223 22.484C49.7213 22.484 49.7203 22.484 49.7193 22.484C49.7184 22.484 49.7174 22.484 49.7164 22.484C49.7154 22.484 49.7144 22.484 49.7135 22.484C49.7125 22.484 49.7115 22.484 49.7105 22.484C49.7095 22.484 49.7085 22.484 49.7076 22.484C49.7066 22.484 49.7056 22.484 49.7046 22.484C49.7036 22.484 49.7026 22.484 49.7016 22.484C49.7006 22.484 49.6996 22.484 49.6987 22.484C49.6977 22.484 49.6967 22.484 49.6957 22.484C49.6947 22.484 49.6937 22.484 49.6927 22.484C49.6917 22.484 49.6907 22.484 49.6897 22.484C49.6887 22.484 49.6877 22.484 49.6867 22.484C49.6857 22.484 49.6847 22.484 49.6837 22.484C49.6827 22.484 49.6817 22.484 49.6807 22.484C49.6797 22.484 49.6787 22.484 49.6777 22.484C49.6767 22.484 49.6757 22.484 49.6747 22.484C49.6737 22.484 49.6727 22.484 49.6716 22.484C49.6706 22.484 49.6696 22.484 49.6686 22.484C49.6676 22.484 49.6666 22.484 49.6656 22.484C49.6646 22.484 49.6636 22.484 49.6625 22.484C49.6615 22.484 49.6605 22.484 49.6595 22.484C49.6585 22.484 49.6575 22.484 49.6564 22.484C49.6554 22.484 49.6544 22.484 49.6534 22.484C49.6524 22.484 49.6513 22.484 49.6503 22.484C49.6493 22.484 49.6483 22.484 49.6472 22.484C49.6462 22.484 49.6452 22.484 49.6442 22.484C49.6431 22.484 49.6421 22.484 49.6411 22.484C49.64 22.484 49.639 22.484 49.638 22.484C49.637 22.484 49.6359 22.484 49.6349 22.484C49.6339 22.484 49.6328 22.484 49.6318 22.484C49.6308 22.484 49.6297 22.484 49.6287 22.484C49.6277 22.484 49.6266 22.484 49.6256 22.484C49.6245 22.484 49.6235 22.484 49.6225 22.484C49.6214 22.484 49.6204 22.484 49.6193 22.484C49.6183 22.484 49.6172 22.484 49.6162 22.484C49.6152 22.484 49.6141 22.484 49.6131 22.484C49.612 22.484 49.611 22.484 49.6099 22.484C49.6089 22.484 49.6078 22.484 49.6068 22.484C49.6057 22.484 49.6047 22.484 49.6036 22.484C49.6026 22.484 49.6015 22.484 49.6005 22.484C49.5994 22.484 49.5984 22.484 49.5973 22.484C49.5962 22.484 49.5952 22.484 49.5941 22.484C49.5931 22.484 49.592 22.484 49.591 22.484C49.5899 22.484 49.5888 22.484 49.5878 22.484C49.5867 22.484 49.5856 22.484 49.5846 22.484C49.5835 22.484 49.5825 22.484 49.5814 22.484C49.5803 22.484 49.5793 22.484 49.5782 22.484C49.5771 22.484 49.576 22.484 49.575 22.484C49.5739 22.484 49.5728 22.484 49.5718 22.484C49.5707 22.484 49.5696 22.484 49.5686 22.484C49.5675 22.484 49.5664 22.484 49.5653 22.484C49.5643 22.484 49.5632 22.484 49.5621 22.484C49.561 22.484 49.5599 22.484 49.5589 22.484C49.5578 22.484 49.5567 22.484 49.5556 22.484C49.5545 22.484 49.5535 22.484 49.5524 22.484C49.5513 22.484 49.5502 22.484 49.5491 22.484C49.548 22.484 49.547 22.484 49.5459 22.484C49.5448 22.484 49.5437 22.484 49.5426 22.484C49.5415 22.484 49.5404 22.484 49.5393 22.484C49.5382 22.484 49.5371 22.484 49.5361 22.484C49.535 22.484 49.5339 22.484 49.5328 22.484C49.5317 22.484 49.5306 22.484 49.5295 22.484C49.5284 22.484 49.5273 22.484 49.5262 22.484C49.5251 22.484 49.524 22.484 49.5229 22.484C49.5218 22.484 49.5207 22.484 49.5196 22.484C49.5185 22.484 49.5174 22.484 49.5163 22.484C49.5152 22.484 49.5141 22.484 49.513 22.484C49.5118 22.484 49.5107 22.484 49.5096 22.484C49.5085 22.484 49.5074 22.484 49.5063 22.484C49.5052 22.484 49.5041 22.484 49.503 22.484C49.5019 22.484 49.5007 22.484 49.4996 22.484C49.4985 22.484 49.4974 22.484 49.4963 22.484C49.4952 22.484 49.494 22.484 49.4929 22.484C49.4918 22.484 49.4907 22.484 49.4896 22.484C49.4884 22.484 49.4873 22.484 49.4862 22.484C49.4851 22.484 49.484 22.484 49.4828 22.484C49.4817 22.484 49.4806 22.484 49.4795 22.484C49.4783 22.484 49.4772 22.484 49.4761 22.484C49.4749 22.484 49.4738 22.484 49.4727 22.484C49.4716 22.484 49.4704 22.484 49.4693 22.484C49.4682 22.484 49.467 22.484 49.4659 22.484C49.4648 22.484 49.4636 22.484 49.4625 22.484C49.4614 22.484 49.4602 22.484 49.4591 22.484C49.4579 22.484 49.4568 22.484 49.4557 22.484C49.4545 22.484 49.4534 22.484 49.4522 22.484C49.4511 22.484 49.45 22.484 49.4488 22.484C49.4477 22.484 49.4465 22.484 49.4454 22.484C49.4442 22.484 49.4431 22.484 49.4419 22.484C49.4408 22.484 49.4396 22.484 49.4385 22.484C49.4373 22.484 49.4362 22.484 49.435 22.484C49.4339 22.484 49.4327 22.484 49.4316 22.484C49.4304 22.484 49.4293 22.484 49.4281 22.484C49.427 22.484 49.4258 22.484 49.4246 22.484C49.4235 22.484 49.4223 22.484 49.4212 22.484C49.42 22.484 49.4188 22.484 49.4177 22.484C49.4165 22.484 49.4154 22.484 49.4142 22.484C49.413 22.484 49.4119 22.484 49.4107 22.484C49.4095 22.484 49.4084 22.484 49.4072 22.484C49.406 22.484 49.4049 22.484 49.4037 22.484C49.4025 22.484 49.4014 22.484 49.4002 22.484C49.399 22.484 49.3979 22.484 49.3967 22.484C49.3955 22.484 49.3943 22.484 49.3932 22.484C49.392 22.484 49.3908 22.484 49.3896 22.484C49.3884 22.484 49.3873 22.484 49.3861 22.484C49.3849 22.484 49.3837 22.484 49.3825 22.484C49.3814 22.484 49.3802 22.484 49.379 22.484C49.3778 22.484 49.3766 22.484 49.3755 22.484C49.3743 22.484 49.3731 22.484 49.3719 22.484C49.3707 22.484 49.3695 22.484 49.3683 22.484C49.3671 22.484 49.366 22.484 49.3648 22.484C49.3636 22.484 49.3624 22.484 49.3612 22.484C49.36 22.484 49.3588 22.484 49.3576 22.484C49.3564 22.484 49.3552 22.484 49.354 22.484C49.3528 22.484 49.3516 22.484 49.3504 22.484C49.3492 22.484 49.348 22.484 49.3468 22.484C49.3456 22.484 49.3444 22.484 49.3432 22.484C49.342 22.484 49.3408 22.484 49.3396 22.484C49.3384 22.484 49.3372 22.484 49.336 22.484C49.3348 22.484 49.3336 22.484 49.3324 22.484C49.3312 22.484 49.33 22.484 49.3287 22.484C49.3275 22.484 49.3263 22.484 49.3251 22.484C49.3239 22.484 49.3227 22.484 49.3215 22.484C49.3203 22.484 49.319 22.484 49.3178 22.484C49.3166 22.484 49.3154 22.484 49.3142 22.484C49.313 22.484 49.3117 22.484 49.3105 22.484C49.3093 22.484 49.3081 22.484 49.3069 22.484C49.3056 22.484 49.3044 22.484 49.3032 22.484C49.302 22.484 49.3007 22.484 49.2995 22.484C49.2983 22.484 49.2971 22.484 49.2958 22.484C49.2946 22.484 49.2934 22.484 49.2921 22.484C49.2909 22.484 49.2897 22.484 49.2885 22.484C49.2872 22.484 49.286 22.484 49.2848 22.484C49.2835 22.484 49.2823 22.484 49.2811 22.484C49.2798 22.484 49.2786 22.484 49.2773 22.484C49.2761 22.484 49.2749 22.484 49.2736 22.484C49.2724 22.484 49.2711 22.484 49.2699 22.484C49.2687 22.484 49.2674 22.484 49.2662 22.484C49.2649 22.484 49.2637 22.484 49.2624 22.484C49.2612 22.484 49.2599 22.484 49.2587 22.484C49.2575 22.484 49.2562 22.484 49.255 22.484C49.2537 22.484 49.2525 22.484 49.2512 22.484C49.25 22.484 49.2487 22.484 49.2475 22.484C49.2462 22.484 49.2449 22.484 49.2437 22.484C49.2424 22.484 49.2412 22.484 49.2399 22.484C49.2387 22.484 49.2374 22.484 49.2361 22.484C49.2349 22.484 49.2336 22.484 49.2324 22.484C49.2311 22.484 49.2298 22.484 49.2286 22.484C49.2273 22.484 49.2261 22.484 49.2248 22.484C49.2235 22.484 49.2223 22.484 49.221 22.484C49.2197 22.484 49.2185 22.484 49.2172 22.484C49.2159 22.484 49.2146 22.484 49.2134 22.484C49.2121 22.484 49.2108 22.484 49.2096 22.484C49.2083 22.484 49.207 22.484 49.2057 22.484C49.2045 22.484 49.2032 22.484 49.2019 22.484C49.2006 22.484 49.1994 22.484 49.1981 22.484C49.1968 22.484 49.1955 22.484 49.1942 22.484C49.193 22.484 49.1917 22.484 49.1904 22.484C49.1891 22.484 49.1878 22.484 49.1865 22.484C49.1853 22.484 49.184 22.484 49.1827 22.484C49.1814 22.484 49.1801 22.484 49.1788 22.484C49.1775 22.484 49.1762 22.484 49.175 22.484C49.1737 22.484 49.1724 22.484 49.1711 22.484C49.1698 22.484 49.1685 22.484 49.1672 22.484C49.1659 22.484 49.1646 22.484 49.1633 22.484C49.162 22.484 49.1607 22.484 49.1594 22.484C49.1581 22.484 49.1568 22.484 49.1555 22.484C49.1542 22.484 49.1529 22.484 49.1516 22.484C49.1503 22.484 49.149 22.484 49.1477 22.484C49.1464 22.484 49.1451 22.484 49.1438 22.484C49.1425 22.484 49.1412 22.484 49.1399 22.484C49.1386 22.484 49.1373 22.484 49.136 22.484C49.1346 22.484 49.1333 22.484 49.132 22.484C49.1307 22.484 49.1294 22.484 49.1281 22.484C49.1268 22.484 49.1255 22.484 49.1241 22.484C49.1228 22.484 49.1215 22.484 49.1202 22.484C49.1189 22.484 49.1175 22.484 49.1162 22.484C49.1149 22.484 49.1136 22.484 49.1123 22.484C49.1109 22.484 49.1096 22.484 49.1083 22.484C49.107 22.484 49.1057 22.484 49.1043 22.484C49.103 22.484 49.1017 22.484 49.1003 22.484C49.099 22.484 49.0977 22.484 49.0964 22.484C49.095 22.484 49.0937 22.484 49.0924 22.484C49.091 22.484 49.0897 22.484 49.0884 22.484C49.087 22.484 49.0857 22.484 49.0844 22.484C49.083 22.484 49.0817 22.484 49.0804 22.484C49.079 22.484 49.0777 22.484 49.0763 22.484C49.075 22.484 49.0737 22.484 49.0723 22.484C49.071 22.484 49.0696 22.484 49.0683 22.484C49.067 22.484 49.0656 22.484 49.0643 22.484C49.0629 22.484 49.0616 22.484 49.0602 22.484C49.0589 22.484 49.0575 22.484 49.0562 22.484C49.0548 22.484 49.0535 22.484 49.0521 22.484C49.0508 22.484 49.0494 22.484 49.0481 22.484C49.0467 22.484 49.0454 22.484 49.044 22.484C49.0427 22.484 49.0413 22.484 49.04 22.484C49.0386 22.484 49.0372 22.484 49.0359 22.484C49.0345 22.484 49.0332 22.484 49.0318 22.484C49.0304 22.484 49.0291 22.484 49.0277 22.484C49.0264 22.484 49.025 22.484 49.0236 22.484C49.0223 22.484 49.0209 22.484 49.0195 22.484C49.0182 22.484 49.0168 22.484 49.0154 22.484C49.0141 22.484 49.0127 22.484 49.0113 22.484C49.0099 22.484 49.0086 22.484 49.0072 22.484C49.0058 22.484 49.0045 22.484 49.0031 22.484C49.0017 22.484 49.0003 22.484 48.999 22.484C48.9976 22.484 48.9962 22.484 48.9948 22.484C48.9934 22.484 48.9921 22.484 48.9907 22.484C48.9893 22.484 48.9879 22.484 48.9865 22.484C48.9852 22.484 48.9838 22.484 48.9824 22.484C48.981 22.484 48.9796 22.484 48.9782 22.484C48.9769 22.484 48.9755 22.484 48.9741 22.484C48.9727 22.484 48.9713 22.484 48.9699 22.484C48.9685 22.484 48.9671 22.484 48.9657 22.484C48.9643 22.484 48.963 22.484 48.9616 22.484C48.9602 22.484 48.9588 22.484 48.9574 22.484C48.956 22.484 48.9546 22.484 48.9532 22.484C48.9518 22.484 48.9504 22.484 48.949 22.484C48.9476 22.484 48.9462 22.484 48.9448 22.484C48.9434 22.484 48.942 22.484 48.9406 22.484C48.9392 22.484 48.9378 22.484 48.9364 22.484C48.935 22.484 48.9336 22.484 48.9321 22.484C48.9307 22.484 48.9293 22.484 48.9279 22.484C48.9265 22.484 48.9251 22.484 48.9237 22.484C48.9223 22.484 48.9209 22.484 48.9194 22.484C48.918 22.484 48.9166 22.484 48.9152 22.484C48.9138 22.484 48.9124 22.484 48.911 22.484C48.9095 22.484 48.9081 22.484 48.9067 22.484C48.9053 22.484 48.9039 22.484 48.9024 22.484C48.901 22.484 48.8996 22.484 48.8982 22.484C48.8968 22.484 48.8953 22.484 48.8939 22.484C48.8925 22.484 48.8911 22.484 48.8896 22.484C48.8882 22.484 48.8868 22.484 48.8853 22.484C48.8839 22.484 48.8825 22.484 48.8811 22.484C48.8796 22.484 48.8782 22.484 48.8768 22.484C48.8753 22.484 48.8739 22.484 48.8725 22.484C48.871 22.484 48.8696 22.484 48.8681 22.484C48.8667 22.484 48.8653 22.484 48.8638 22.484C48.8624 22.484 48.861 22.484 48.8595 22.484C48.8581 22.484 48.8566 22.484 48.8552 22.484C48.8537 22.484 48.8523 22.484 48.8509 22.484C48.8494 22.484 48.848 22.484 48.8465 22.484C48.8451 22.484 48.8436 22.484 48.8422 22.484C48.8407 22.484 48.8393 22.484 48.8378 22.484C48.8364 22.484 48.8349 22.484 48.8335 22.484C48.832 22.484 48.8306 22.484 48.8291 22.484C48.8277 22.484 48.8262 22.484 48.8247 22.484C48.8233 22.484 48.8218 22.484 48.8204 22.484C48.8189 22.484 48.8175 22.484 48.816 22.484C48.8145 22.484 48.8131 22.484 48.8116 22.484C48.8102 22.484 48.8087 22.484 48.8072 22.484C48.8058 22.484 48.8043 22.484 48.8028 22.484C48.8014 22.484 48.7999 22.484 48.7984 22.484C48.797 22.484 48.7955 22.484 48.794 22.484C48.7925 22.484 48.7911 22.484 48.7896 22.484C48.7881 22.484 48.7867 22.484 48.7852 22.484C48.7837 22.484 48.7822 22.484 48.7808 22.484C48.7793 22.484 48.7778 22.484 48.7763 22.484C48.7749 22.484 48.7734 22.484 48.7719 22.484C48.7704 22.484 48.7689 22.484 48.7675 22.484C48.766 22.484 48.7645 22.484 48.763 22.484C48.7615 22.484 48.76 22.484 48.7586 22.484C48.7571 22.484 48.7556 22.484 48.7541 22.484C48.7526 22.484 48.7511 22.484 48.7496 22.484C48.7481 22.484 48.7466 22.484 48.7452 22.484C48.7437 22.484 48.7422 22.484 48.7407 22.484C48.7392 22.484 48.7377 22.484 48.7362 22.484C48.7347 22.484 48.7332 22.484 48.7317 22.484C48.7302 22.484 48.7287 22.484 48.7272 22.484C48.7257 22.484 48.7242 22.484 48.7227 22.484C48.7212 22.484 48.7197 22.484 48.7182 22.484C48.7167 22.484 48.7152 22.484 48.7137 22.484C48.7122 22.484 48.7107 22.484 48.7092 22.484C48.7077 22.484 48.7062 22.484 48.7046 22.484C48.7031 22.484 48.7016 22.484 48.7001 22.484C48.6986 22.484 48.6971 22.484 48.6956 22.484C48.6941 22.484 48.6926 22.484 48.691 22.484C48.6895 22.484 48.688 22.484 48.6865 22.484C48.685 22.484 48.6835 22.484 48.6819 22.484C48.6804 22.484 48.6789 22.484 48.6774 22.484C48.6759 22.484 48.6743 22.484 48.6728 22.484C48.6713 22.484 48.6698 22.484 48.6682 22.484C48.6667 22.484 48.6652 22.484 48.6637 22.484C48.6621 22.484 48.6606 22.484 48.6591 22.484C48.6576 22.484 48.656 22.484 48.6545 22.484C48.653 22.484 48.6514 22.484 48.6499 22.484C48.6484 22.484 48.6468 22.484 48.6453 22.484C48.6438 22.484 48.6422 22.484 48.6407 22.484C48.6392 22.484 48.6376 22.484 48.6361 22.484C48.6345 22.484 48.633 22.484 48.6315 22.484C48.6299 22.484 48.6284 22.484 48.6268 22.484C48.6253 22.484 48.6237 22.484 48.6222 22.484C48.6207 22.484 48.6191 22.484 48.6176 22.484C48.616 22.484 48.6145 22.484 48.6129 22.484C48.6114 22.484 48.6098 22.484 48.6083 22.484C48.6067 22.484 48.6052 22.484 48.6036 22.484C48.6021 22.484 48.6005 22.484 48.599 22.484C48.5974 22.484 48.5959 22.484 48.5943 22.484C48.5927 22.484 48.5912 22.484 48.5896 22.484C48.5881 22.484 48.5865 22.484 48.585 22.484C48.5834 22.484 48.5818 22.484 48.5803 22.484C48.5787 22.484 48.5771 22.484 48.5756 22.484C48.574 22.484 48.5725 22.484 48.5709 22.484C48.5693 22.484 48.5678 22.484 48.5662 22.484C48.5646 22.484 48.563 22.484 48.5615 22.484C48.5599 22.484 48.5583 22.484 48.5568 22.484C48.5552 22.484 48.5536 22.484 48.5521 22.484C48.5505 22.484 48.5489 22.484 48.5473 22.484C48.5458 22.484 48.5442 22.484 48.5426 22.484C48.541 22.484 48.5394 22.484 48.5379 22.484C48.5363 22.484 48.5347 22.484 48.5331 22.484C48.5315 22.484 48.53 22.484 48.5284 22.484V23.484ZM50.228 23.4827C50.5367 23.4607 50.9819 23.4171 51.5596 23.3529L51.4492 22.3591C50.8749 22.4229 50.4454 22.4647 50.1567 22.4853L50.228 23.4827ZM51.5596 23.3529C52.1467 23.2877 52.6369 23.1848 52.976 23.0152L52.5288 22.1208C52.3559 22.2072 52.014 22.2963 51.4492 22.3591L51.5596 23.3529ZM53.0043 22.9999C53.3071 22.8232 53.6074 22.5801 53.9059 22.2816L53.1988 21.5744C52.9427 21.8306 52.7096 22.0141 52.5004 22.1361L53.0043 22.9999ZM53.9059 22.2816C54.2565 21.9309 54.527 21.5097 54.7206 21.0257L53.7921 20.6543C53.6444 21.0237 53.4455 21.3277 53.1988 21.5744L53.9059 22.2816ZM54.7261 21.0114L60.2621 5.84343L59.3227 5.50057L53.7867 20.6686L54.7261 21.0114ZM60.2595 5.85035C60.4934 5.23775 60.6229 4.68266 60.5955 4.21106C60.5667 3.71329 60.3566 3.27856 59.9087 3.02775L59.4201 3.90025C59.5055 3.9481 59.5834 4.03071 59.5972 4.26894C59.6125 4.53334 59.5394 4.93291 59.3253 5.49365L60.2595 5.85035ZM59.9163 3.03211C59.5638 2.8265 59.025 2.70681 58.3783 2.63137C57.7113 2.55355 56.8579 2.516 55.8244 2.516V3.516C56.8389 3.516 57.6494 3.55311 58.2624 3.62463C58.8958 3.69852 59.2529 3.80283 59.4124 3.89589L59.9163 3.03211ZM56.2646 3.25305L56.4886 2.83705L55.6081 2.36295L55.3841 2.77895L56.2646 3.25305ZM56.0484 3.1H62.6404V2.1H56.0484V3.1ZM62.1753 2.78354L69.2473 20.7035L70.1775 20.3365L63.1055 2.41645L62.1753 2.78354ZM69.2493 20.7086C69.5017 21.328 69.8197 21.8536 70.2123 22.2707L70.9405 21.5853C70.6504 21.2771 70.3924 20.864 70.1754 20.3314L69.2493 20.7086ZM70.2228 22.2816C70.6369 22.6956 71.1673 22.979 71.7904 23.1468L72.0504 22.1812C71.5641 22.0503 71.1985 21.843 70.9299 21.5744L70.2228 22.2816ZM71.7904 23.1468C72.3631 23.301 72.8815 23.4034 73.3426 23.4495L73.4421 22.4545C73.0499 22.4153 72.587 22.3257 72.0504 22.1812L71.7904 23.1468ZM73.3686 23.4514C73.8284 23.4733 74.467 23.484 75.2804 23.484V22.484C74.4724 22.484 73.8523 22.4733 73.4162 22.4526L73.3686 23.4514ZM74.8401 22.747L74.6161 23.1629L75.4966 23.6371L75.7206 23.2211L74.8401 22.747ZM75.0564 22.9H63.1844V23.9H75.0564V22.9ZM63.6384 23.6095L63.8304 23.1935L62.9224 22.7745L62.7304 23.1905L63.6384 23.6095ZM63.3764 23.484C65.036 23.484 66.2559 23.3807 66.9634 23.1367L66.6374 22.1913C66.1076 22.374 65.0448 22.484 63.3764 22.484V23.484ZM66.9585 23.1383C67.3557 23.0059 67.7117 22.7692 67.8783 22.3675C68.0411 21.9746 67.9696 21.5499 67.8055 21.1586L66.8833 21.5454C66.9965 21.8154 66.9729 21.94 66.9545 21.9845C66.9397 22.0201 66.8851 22.1087 66.6423 22.1897L66.9585 23.1383ZM67.8098 21.1693L64.4178 12.5293L63.487 12.8947L66.879 21.5347L67.8098 21.1693ZM63.563 12.3983C63.0023 13.0943 62.1607 13.7368 61.0088 14.3128L61.456 15.2072C62.6933 14.5885 63.6651 13.8657 64.3418 13.0257L63.563 12.3983ZM61.0088 14.3128C59.8193 14.9075 58.7057 15.4378 57.6676 15.9039L58.0772 16.8161C59.1298 16.3435 60.2561 15.8072 61.456 15.2072L61.0088 14.3128ZM57.664 15.9055C56.6157 16.386 55.8284 16.9246 55.4084 17.5546L56.2404 18.1094C56.5031 17.7154 57.0811 17.2727 58.0807 16.8145L57.664 15.9055ZM55.3551 17.6594L54.1071 21.0514L55.0456 21.3966L56.2936 18.0046L55.3551 17.6594ZM54.1093 21.0454C53.9478 21.468 53.8867 21.9101 54.0481 22.3137C54.2147 22.7301 54.5698 22.9878 54.9852 23.1352L55.3196 22.1928C55.0736 22.1055 55.0021 22.0059 54.9766 21.9423C54.946 21.8659 54.9276 21.7053 55.0434 21.4026L54.1093 21.0454ZM55.0032 23.1412C55.768 23.3802 57.1095 23.484 58.9604 23.484V22.484C57.0993 22.484 55.9021 22.3744 55.3015 22.1868L55.0032 23.1412ZM58.5064 22.7745L58.3144 23.1905L59.2224 23.6095L59.4144 23.1935L58.5064 22.7745ZM58.7684 22.9H48.3044V23.9H58.7684V22.9ZM48.7446 23.6371L48.9686 23.2211L48.0881 22.747L47.8641 23.163L48.7446 23.6371ZM56.491 17.3246C56.883 17.0073 57.5979 16.6132 58.6784 16.1471L58.2823 15.2289C57.1868 15.7015 56.3658 16.1394 55.8618 16.5474L56.491 17.3246ZM58.6784 16.1471C59.7794 15.6722 60.8278 15.1643 61.8231 14.6233L61.3456 13.7447C60.3783 14.2704 59.3573 14.7652 58.2823 15.2289L58.6784 16.1471ZM61.8304 14.6193C62.8574 14.0388 63.6578 13.3635 64.2026 12.5819L63.3822 12.0101C62.9456 12.6365 62.2741 13.2198 61.3383 13.7487L61.8304 14.6193ZM64.2575 12.1126L61.2175 4.40064L60.2872 4.76736L63.3272 12.4794L64.2575 12.1126ZM60.2835 4.4103L55.7075 16.7623L56.6452 17.1097L61.2212 4.7577L60.2835 4.4103ZM72.1536 5.48L72.6187 5.29645L72.6161 5.28971L72.6132 5.28304L72.1536 5.48ZM71.2576 4.072L70.8935 4.41468L70.8987 4.4202L70.9041 4.42555L71.2576 4.072ZM69.8816 3.336L69.7561 3.82L69.7646 3.82219L69.7732 3.82409L69.8816 3.336ZM68.4416 3.08L68.3864 3.57694L68.4001 3.57846L68.4139 3.57923L68.4416 3.08ZM66.5856 3.016L66.1454 2.77895L65.7485 3.516H66.5856V3.016ZM66.8096 2.6V2.1H66.511L66.3694 2.36295L66.8096 2.6ZM78.6816 2.6L79.1356 2.80953L79.4631 2.1H78.6816V2.6ZM78.4896 3.016V3.516H78.8095L78.9436 3.22553L78.4896 3.016ZM75.0336 3.336L74.8755 2.86163L74.8706 2.86331L75.0336 3.336ZM74.5216 4.648L74.9874 4.46575L74.9827 4.45464L74.5216 4.648ZM81.1456 21.576L80.68 21.7582L81.1627 22.9917L81.6155 21.7469L81.1456 21.576ZM87.2576 4.776L86.7889 4.6019L86.7878 4.60506L87.2576 4.776ZM86.6816 3.336L86.5281 3.81185L86.6816 3.336ZM82.9056 3.016L82.4516 2.80647L82.1242 3.516H82.9056V3.016ZM83.0976 2.6V2.1H82.7777L82.6436 2.39047L83.0976 2.6ZM93.5616 2.6L94.0019 2.83705L94.3987 2.1H93.5616V2.6ZM93.3376 3.016V3.516H93.6363L93.7779 3.25305L93.3376 3.016ZM89.6256 3.24L89.4908 2.75852L89.4896 2.75885L89.6256 3.24ZM87.6096 5.16L88.0793 5.33143L88.0798 5.33007L87.6096 5.16ZM82.0736 20.328L82.5408 20.5064L82.5433 20.4994L82.0736 20.328ZM82.1696 22.536L81.9177 22.9679L82.1696 22.536ZM86.0096 22.984L86.4636 23.1935L86.7911 22.484H86.0096V22.984ZM85.8176 23.4V23.9H86.1375L86.2716 23.6095L85.8176 23.4ZM79.2256 23.4L78.7605 23.5835L78.8854 23.9H79.2256V23.4ZM72.6132 5.28304C72.3403 4.64628 72.0101 4.11739 71.6112 3.71845L70.9041 4.42555C71.1878 4.70927 71.4549 5.11905 71.6941 5.67696L72.6132 5.28304ZM71.6217 3.72932C71.1998 3.28099 70.6455 2.99355 69.9901 2.84791L69.7732 3.82409C70.2698 3.93445 70.6328 4.13767 70.8935 4.41468L71.6217 3.72932ZM70.0071 2.852C69.4144 2.69835 68.8991 2.60464 68.4694 2.58077L68.4139 3.57923C68.7521 3.59802 69.1968 3.67498 69.7561 3.82L70.0071 2.852ZM68.4968 2.58306C68.0833 2.5371 67.4409 2.516 66.5856 2.516V3.516C67.4371 3.516 68.032 3.53756 68.3864 3.57694L68.4968 2.58306ZM67.0259 3.25305L67.2499 2.83705L66.3694 2.36295L66.1454 2.77895L67.0259 3.25305ZM66.8096 3.1H78.6816V2.1H66.8096V3.1ZM78.2276 2.39047L78.0356 2.80647L78.9436 3.22553L79.1356 2.80953L78.2276 2.39047ZM78.4896 2.516C76.8279 2.516 75.6011 2.61979 74.8755 2.86166L75.1917 3.81034C75.7461 3.62554 76.8233 3.516 78.4896 3.516V2.516ZM74.8706 2.86331C74.4796 2.99814 74.1331 3.23917 73.9758 3.64223C73.8236 4.03233 73.8975 4.45265 74.0605 4.84136L74.9827 4.45464C74.8684 4.18202 74.889 4.053 74.9074 4.00577C74.9208 3.9715 74.969 3.88719 75.1966 3.80869L74.8706 2.86331ZM74.056 4.8302L80.68 21.7582L81.6112 21.3938L74.9872 4.4658L74.056 4.8302ZM81.6155 21.7469L87.7275 4.94694L86.7878 4.60506L80.6758 21.4051L81.6155 21.7469ZM87.7263 4.95009C87.8857 4.52104 87.9473 4.07402 87.7859 3.6703C87.6172 3.24857 87.2556 2.99579 86.8351 2.86014L86.5281 3.81185C86.769 3.88954 86.8341 3.98342 86.8574 4.04169C86.8879 4.11797 86.9069 4.28429 86.7889 4.60191L87.7263 4.95009ZM86.8351 2.86014C86.0888 2.61938 84.7546 2.516 82.9056 2.516V3.516C84.7687 3.516 85.9518 3.62595 86.5281 3.81185L86.8351 2.86014ZM83.3596 3.22553L83.5516 2.80953L82.6436 2.39047L82.4516 2.80647L83.3596 3.22553ZM83.0976 3.1H93.5616V2.1H83.0976V3.1ZM93.1214 2.36295L92.8974 2.77895L93.7779 3.25305L94.0019 2.83705L93.1214 2.36295ZM93.3376 2.516C92.3618 2.516 91.5561 2.53473 90.9235 2.57291C90.3019 2.61042 89.813 2.66832 89.4908 2.75852L89.7604 3.72148C89.9716 3.66235 90.368 3.60825 90.9837 3.57109C91.5884 3.5346 92.3721 3.516 93.3376 3.516V2.516ZM89.4896 2.75885C88.3452 3.08229 87.5539 3.84393 87.1394 4.98993L88.0798 5.33007C88.3906 4.47073 88.9434 3.95238 89.7616 3.72115L89.4896 2.75885ZM87.1399 4.98857L81.6039 20.1566L82.5433 20.4994L88.0793 5.33143L87.1399 4.98857ZM81.6065 20.1496C81.3729 20.7614 81.2417 21.3137 81.2621 21.7817C81.2834 22.2725 81.4781 22.7115 81.9177 22.9679L82.4216 22.1041C82.3491 22.0618 82.2718 21.9835 82.2612 21.7383C82.2495 21.4703 82.3263 21.068 82.5407 20.5063L81.6065 20.1496ZM81.9177 22.9679C82.2702 23.1735 82.809 23.2932 83.4557 23.3686C84.1227 23.4464 84.9761 23.484 86.0096 23.484V22.484C84.9951 22.484 84.1846 22.4469 83.5716 22.3754C82.9382 22.3015 82.5811 22.1972 82.4216 22.1041L81.9177 22.9679ZM85.5556 22.7745L85.3636 23.1905L86.2716 23.6095L86.4636 23.1935L85.5556 22.7745ZM85.8176 22.9H79.2256V23.9H85.8176V22.9ZM79.6907 23.2165L72.6187 5.29645L71.6885 5.66354L78.7605 23.5835L79.6907 23.2165ZM92.2159 22.984V22.484H91.9172L91.7756 22.747L92.2159 22.984ZM96.1519 22.504L96.388 22.9448L96.3934 22.9418L96.1519 22.504ZM96.0879 3.528L95.8526 3.96918L95.8613 3.9738L95.8701 3.97808L96.0879 3.528ZM91.9919 3.016L91.5516 2.77895L91.1548 3.516H91.9919V3.016ZM92.2159 2.6V2.1H91.9172L91.7756 2.36295L92.2159 2.6ZM110.52 2.6L110.979 2.40101L110.848 2.1H110.52V2.6ZM112.408 6.952L112.232 7.42016L113.335 7.83385L112.867 6.75301L112.408 6.952ZM111.896 6.76L111.438 6.96074L111.523 7.15405L111.72 7.22816L111.896 6.76ZM109.464 3.72L109.236 4.16514L109.24 4.16721L109.464 3.72ZM100.504 3.496L100.748 3.93229L100.754 3.92909L100.504 3.496ZM99.7039 12.776H99.2039V13.276H99.7039V12.776ZM106.264 11.72L105.789 11.5618L105.785 11.575L106.264 11.72ZM106.04 7.72V7.22H105.433L105.549 7.816L106.04 7.72ZM106.456 7.72L106.949 7.6349L106.877 7.22H106.456V7.72ZM108.28 18.28V18.78H108.874L108.773 18.1949L108.28 18.28ZM107.864 18.28L107.371 18.3663L107.444 18.78H107.864V18.28ZM106.648 14.184L107.062 13.9036V13.9036L106.648 14.184ZM99.7039 13.192V12.692H99.2039V13.192H99.7039ZM100.664 22.504L100.429 22.9452L100.437 22.9498L100.446 22.9541L100.664 22.504ZM110.328 22.28L110.116 21.8271L110.112 21.8289L110.328 22.28ZM112.856 19.24L112.655 18.7819L112.476 18.8603L112.398 19.0393L112.856 19.24ZM113.368 19.016L113.827 19.2138L114.328 18.0501L113.167 18.5579L113.368 19.016ZM111.48 23.4V23.9H111.809L111.939 23.5978L111.48 23.4ZM91.9919 23.4L91.5516 23.163L91.1548 23.9H91.9919V23.4ZM92.2159 23.484C93.24 23.484 94.0967 23.4437 94.7804 23.3603C95.4508 23.2786 96.0045 23.1502 96.388 22.9447L95.9158 22.0633C95.7019 22.1778 95.301 22.2894 94.6593 22.3677C94.031 22.4443 93.2184 22.484 92.2159 22.484V23.484ZM96.3934 22.9418C97.2691 22.4587 97.5799 21.3854 97.5799 20.072H96.5799C96.5799 21.3186 96.272 21.8667 95.9103 22.0662L96.3934 22.9418ZM97.5799 20.072V5.928H96.5799V20.072H97.5799ZM97.5799 5.928C97.5799 4.60563 97.2422 3.53107 96.3057 3.07792L95.8701 3.97808C96.2562 4.16493 96.5799 4.69036 96.5799 5.928H97.5799ZM96.3232 3.08682C95.9204 2.87199 95.3448 2.73522 94.6459 2.64786C93.935 2.559 93.0485 2.516 91.9919 2.516V3.516C93.0259 3.516 93.8674 3.55833 94.5219 3.64014C95.1883 3.72344 95.6154 3.84268 95.8526 3.96918L96.3232 3.08682ZM92.4321 3.25305L92.6561 2.83705L91.7756 2.36295L91.5516 2.77895L92.4321 3.25305ZM92.2159 3.1H110.52V2.1H92.2159V3.1ZM110.061 2.79899L111.949 7.15099L112.867 6.75301L110.979 2.40101L110.061 2.79899ZM112.583 6.48384L112.071 6.29183L111.72 7.22816L112.232 7.42016L112.583 6.48384ZM112.354 6.55926C111.651 4.95683 110.778 3.81822 109.687 3.27279L109.24 4.16721C110.027 4.56044 110.775 5.4485 111.438 6.96074L112.354 6.55926ZM109.692 3.27488C108.659 2.7463 106.94 2.516 104.632 2.516V3.516C106.932 3.516 108.435 3.75503 109.236 4.16512L109.692 3.27488ZM104.632 2.516C103.524 2.516 102.609 2.55622 101.894 2.63935C101.199 2.72017 100.627 2.8478 100.254 3.06291L100.754 3.92909C100.936 3.82419 101.329 3.71183 102.01 3.63265C102.671 3.55578 103.543 3.516 104.632 3.516V2.516ZM100.26 3.05975C99.8469 3.29084 99.5858 3.69475 99.4289 4.17176C99.2725 4.64728 99.2039 5.23942 99.2039 5.928H100.204C100.204 5.29391 100.269 4.81939 100.379 4.48424C100.489 4.15058 100.628 3.99982 100.748 3.93225L100.26 3.05975ZM99.2039 5.928V12.776H100.204V5.928H99.2039ZM99.7039 13.276H104.024V12.276H99.7039V13.276ZM104.024 13.276C104.701 13.276 105.29 13.1842 105.757 12.9643C106.241 12.7361 106.589 12.3697 106.742 11.865L105.785 11.575C105.725 11.7743 105.593 11.9359 105.331 12.0597C105.051 12.1918 104.627 12.276 104.024 12.276V13.276ZM106.738 11.8781C106.886 11.4361 106.922 10.8515 106.883 10.164C106.844 9.4663 106.725 8.61791 106.531 7.62399L105.549 7.816C105.739 8.78475 105.849 9.58437 105.885 10.22C105.921 10.8658 105.877 11.2999 105.79 11.5619L106.738 11.8781ZM106.04 8.22H106.456V7.22H106.04V8.22ZM105.963 7.8051L107.787 18.3651L108.773 18.1949L106.949 7.6349L105.963 7.8051ZM108.28 17.78H107.864V18.78H108.28V17.78ZM108.356 18.1937C108.173 17.1481 107.977 16.2692 107.767 15.5617C107.559 14.862 107.329 14.2975 107.062 13.9036L106.234 14.4644C106.415 14.7318 106.611 15.1807 106.809 15.8463C107.004 16.5042 107.192 17.3426 107.371 18.3663L108.356 18.1937ZM107.062 13.9036C106.475 13.0376 105.399 12.692 104.056 12.692V13.692C105.273 13.692 105.925 14.0078 106.234 14.4644L107.062 13.9036ZM104.056 12.692H99.7039V13.692H104.056V12.692ZM99.2039 13.192V20.072H100.204V13.192H99.2039ZM99.2039 20.072C99.2039 21.3919 99.5288 22.4653 100.429 22.9452L100.899 22.0628C100.519 21.8601 100.204 21.3121 100.204 20.072H99.2039ZM100.446 22.9541C100.856 23.1524 101.449 23.2794 102.176 23.3609C102.916 23.4437 103.843 23.484 104.952 23.484V22.484C103.863 22.484 102.977 22.4443 102.287 22.3671C101.586 22.2886 101.133 22.1756 100.882 22.0539L100.446 22.9541ZM104.952 23.484C107.553 23.484 109.449 23.2544 110.544 22.7311L110.112 21.8289C109.244 22.2443 107.556 22.484 104.952 22.484V23.484ZM110.54 22.7328C111.698 22.1907 112.608 21.052 113.314 19.4407L112.398 19.0393C111.739 20.5427 110.963 21.4307 110.116 21.8272L110.54 22.7328ZM113.056 19.6981L113.568 19.4741L113.167 18.5579L112.655 18.7819L113.056 19.6981ZM112.909 18.8182L111.021 23.2022L111.939 23.5978L113.827 19.2138L112.909 18.8182ZM111.48 22.9H91.9919V23.9H111.48V22.9ZM92.4321 23.6371L92.6561 23.2211L91.7756 22.747L91.5516 23.163L92.4321 23.6371ZM112.653 22.984V22.484H112.355L112.213 22.747L112.653 22.984ZM116.589 22.504L116.826 22.9448L116.831 22.9418L116.589 22.504ZM116.525 3.528L116.296 3.97246L116.308 3.97808L116.525 3.528ZM112.429 3.016L111.989 2.77895L111.592 3.516H112.429V3.016ZM112.653 2.6V2.1H112.355L112.213 2.36295L112.653 2.6ZM125.197 2.6L125.651 2.80953L125.979 2.1H125.197V2.6ZM125.005 3.016V3.516H125.325L125.459 3.22553L125.005 3.016ZM121.037 3.528L121.274 3.96877L121.279 3.96579L121.037 3.528ZM121.165 22.504L120.942 22.9512L120.95 22.9554L120.958 22.9592L121.165 22.504ZM130.477 22.312L130.697 22.7613L130.701 22.7592L130.477 22.312ZM132.941 19.24L133.398 19.4436L133.441 19.3464V19.24H132.941ZM131.949 3.528L131.714 3.96918L131.723 3.9738L131.732 3.97808L131.949 3.528ZM127.885 3.016L127.431 2.80647L127.104 3.516H127.885V3.016ZM128.077 2.6V2.1H127.757L127.623 2.39047L128.077 2.6ZM140.653 2.6L141.094 2.83705L141.49 2.1H140.653V2.6ZM140.429 3.016V3.516H140.728L140.87 3.25305L140.429 3.016ZM136.461 3.528L136.698 3.96877L136.703 3.96579L136.461 3.528ZM136.557 22.504L136.328 22.9485L136.34 22.9541L136.557 22.504ZM140.653 22.984L141.094 23.221L141.49 22.484H140.653V22.984ZM140.429 23.4V23.9H140.728L140.87 23.637L140.429 23.4ZM132.941 23.4H132.441V23.9H132.941V23.4ZM132.941 20.2H133.441L132.482 20.0025L132.941 20.2ZM131.565 23.4V23.9H131.895L132.025 23.5975L131.565 23.4ZM112.429 23.4L111.989 23.163L111.592 23.9H112.429V23.4ZM112.653 23.484C113.677 23.484 114.534 23.4437 115.218 23.3603C115.888 23.2786 116.442 23.1502 116.825 22.9447L116.353 22.0633C116.139 22.1778 115.738 22.2894 115.097 22.3677C114.469 22.4443 113.656 22.484 112.653 22.484V23.484ZM116.831 22.9418C117.707 22.4587 118.017 21.3854 118.017 20.072H117.017C117.017 21.3186 116.709 21.8667 116.348 22.0662L116.831 22.9418ZM118.017 20.072V5.928H117.017V20.072H118.017ZM118.017 5.928C118.017 4.60563 117.68 3.53107 116.743 3.07792L116.308 3.97808C116.694 4.16493 117.017 4.69036 117.017 5.928H118.017ZM116.755 3.08369C116.345 2.87205 115.768 2.73538 115.067 2.64786C114.357 2.55902 113.476 2.516 112.429 2.516V3.516C113.453 3.516 114.289 3.55831 114.943 3.64014C115.609 3.72328 116.045 3.84262 116.296 3.97231L116.755 3.08369ZM112.87 3.25305L113.094 2.83705L112.213 2.36295L111.989 2.77895L112.87 3.25305ZM112.653 3.1H125.197V2.1H112.653V3.1ZM124.743 2.39047L124.551 2.80647L125.459 3.22553L125.651 2.80953L124.743 2.39047ZM125.005 2.516C123.98 2.516 123.12 2.55902 122.429 2.64811C121.751 2.73564 121.19 2.873 120.796 3.09021L121.279 3.96579C121.504 3.84166 121.913 3.72303 122.557 3.63989C123.19 3.55831 124.004 3.516 125.005 3.516V2.516ZM120.801 3.08726C119.936 3.55064 119.641 4.62593 119.641 5.928H120.641C120.641 4.67006 120.944 4.14536 121.273 3.96874L120.801 3.08726ZM119.641 5.928V20.072H120.641V5.928H119.641ZM119.641 20.072C119.641 21.4051 119.995 22.4779 120.942 22.9512L121.389 22.0568C120.97 21.8475 120.641 21.2989 120.641 20.072H119.641ZM120.958 22.9592C121.384 23.1525 121.983 23.2793 122.718 23.3609C123.463 23.4437 124.387 23.484 125.485 23.484V22.484C124.408 22.484 123.524 22.4443 122.829 22.3671C122.124 22.2887 121.651 22.1755 121.372 22.0488L120.958 22.9592ZM125.485 23.484C127.895 23.484 129.665 23.265 130.697 22.7613L130.258 21.8627C129.455 22.255 127.897 22.484 125.485 22.484V23.484ZM130.701 22.7592C131.792 22.2139 132.675 21.0648 133.398 19.4436L132.485 19.0364C131.8 20.5726 131.04 21.4715 130.254 21.8648L130.701 22.7592ZM133.441 19.24V5.928H132.441V19.24H133.441ZM133.441 5.928C133.441 4.60563 133.104 3.53107 132.167 3.07792L131.732 3.97808C132.118 4.16493 132.441 4.69036 132.441 5.928H133.441ZM132.185 3.08682C131.782 2.87225 131.21 2.73537 130.516 2.64792C129.81 2.55901 128.931 2.516 127.885 2.516V3.516C128.909 3.516 129.742 3.55832 130.391 3.64008C131.051 3.7233 131.476 3.84241 131.714 3.96918L132.185 3.08682ZM128.339 3.22553L128.531 2.80953L127.623 2.39047L127.431 2.80647L128.339 3.22553ZM128.077 3.1H140.653V2.1H128.077V3.1ZM140.213 2.36295L139.989 2.77895L140.87 3.25305L141.094 2.83705L140.213 2.36295ZM140.429 2.516C139.404 2.516 138.544 2.55902 137.853 2.64811C137.175 2.73564 136.614 2.873 136.22 3.09021L136.703 3.96579C136.928 3.84166 137.337 3.72303 137.981 3.63989C138.614 3.55831 139.428 3.516 140.429 3.516V2.516ZM136.225 3.08726C135.36 3.55064 135.065 4.62593 135.065 5.928H136.065C136.065 4.67006 136.368 4.14536 136.697 3.96874L136.225 3.08726ZM135.065 5.928V20.072H136.065V5.928H135.065ZM135.065 20.072C135.065 21.3985 135.405 22.4717 136.328 22.9483L136.787 22.0597C136.388 21.8537 136.065 21.3055 136.065 20.072H135.065ZM136.34 22.9541C136.747 23.1511 137.321 23.2787 138.019 23.3606C138.728 23.4437 139.608 23.484 140.653 23.484V22.484C139.63 22.484 138.792 22.4443 138.136 22.3674C137.469 22.2893 137.029 22.1769 136.775 22.0539L136.34 22.9541ZM140.213 22.747L139.989 23.163L140.87 23.637L141.094 23.221L140.213 22.747ZM140.429 22.9H132.941V23.9H140.429V22.9ZM133.441 23.4V20.2H132.441V23.4H133.441ZM132.482 20.0025L131.106 23.2025L132.025 23.5975L133.401 20.3975L132.482 20.0025ZM131.565 22.9H112.429V23.9H131.565V22.9ZM112.87 23.6371L113.094 23.2211L112.213 22.747L111.989 23.163L112.87 23.6371ZM146.614 22.984V22.484H146.316L146.174 22.747L146.614 22.984ZM150.55 22.504L150.786 22.9448L150.792 22.9418L150.55 22.504ZM142.806 3.752L143.057 4.18473L143.06 4.18268L142.806 3.752ZM140.566 6.76L140.742 7.22816L140.938 7.15458L141.023 6.96307L140.566 6.76ZM140.054 6.952L139.596 6.75301L139.127 7.83385L140.23 7.42016L140.054 6.952ZM141.942 2.6V2.1H141.614L141.484 2.40101L141.942 2.6ZM163.606 2.6L164.065 2.40101L163.934 2.1H163.606V2.6ZM165.494 6.952L165.319 7.42016L166.422 7.83385L165.953 6.75301L165.494 6.952ZM164.982 6.76L164.525 6.96307L164.611 7.15458L164.807 7.22816L164.982 6.76ZM162.71 3.752L162.451 4.17975L162.458 4.18372L162.465 4.18749L162.71 3.752ZM154.902 3.432L155.133 3.87561L154.902 3.432ZM155.062 22.504L154.827 22.9453L154.839 22.9512L155.062 22.504ZM159.158 22.984L159.612 23.1935L159.94 22.484H159.158V22.984ZM158.966 23.4V23.9H159.286L159.42 23.6095L158.966 23.4ZM146.39 23.4L145.95 23.163L145.553 23.9H146.39V23.4ZM146.614 23.484C147.639 23.484 148.495 23.4437 149.179 23.3603C149.849 23.2786 150.403 23.1502 150.786 22.9447L150.314 22.0633C150.1 22.1778 149.699 22.2894 149.058 22.3677C148.43 22.4443 147.617 22.484 146.614 22.484V23.484ZM150.792 22.9418C151.668 22.4587 151.978 21.3854 151.978 20.072H150.978C150.978 21.3186 150.671 21.8667 150.309 22.0662L150.792 22.9418ZM151.978 20.072V5.576H150.978V20.072H151.978ZM151.978 5.576C151.978 4.40637 151.717 3.40871 150.909 2.98839L150.448 3.87561C150.706 4.00996 150.978 4.44163 150.978 5.576H151.978ZM150.909 2.98839C150.552 2.80289 150.009 2.6927 149.347 2.62277C148.666 2.55085 147.796 2.516 146.742 2.516V3.516C147.779 3.516 148.61 3.55048 149.242 3.61723C149.892 3.68597 150.271 3.78378 150.448 3.87561L150.909 2.98839ZM146.742 2.516C144.926 2.516 143.503 2.76094 142.552 3.32132L143.06 4.18268C143.774 3.76172 144.975 3.516 146.742 3.516V2.516ZM142.556 3.31929C141.606 3.86917 140.805 4.99173 140.109 6.55693L141.023 6.96307C141.693 5.45627 142.385 4.57349 143.057 4.18471L142.556 3.31929ZM140.391 6.29183L139.879 6.48384L140.23 7.42016L140.742 7.22816L140.391 6.29183ZM140.513 7.15099L142.401 2.79899L141.484 2.40101L139.596 6.75301L140.513 7.15099ZM141.942 3.1H163.606V2.1H141.942V3.1ZM163.148 2.79899L165.036 7.15099L165.953 6.75301L164.065 2.40101L163.148 2.79899ZM165.67 6.48384L165.158 6.29183L164.807 7.22816L165.319 7.42016L165.67 6.48384ZM165.439 6.55693C164.742 4.98896 163.929 3.86561 162.956 3.31651L162.465 4.18749C163.155 4.57706 163.857 5.45904 164.525 6.96307L165.439 6.55693ZM162.969 3.32425C162.038 2.7607 160.633 2.516 158.838 2.516V3.516C160.585 3.516 161.761 3.76196 162.451 4.17975L162.969 3.32425ZM158.838 2.516C157.784 2.516 156.914 2.55085 156.234 2.62277C155.572 2.6927 155.028 2.80289 154.672 2.98839L155.133 3.87561C155.31 3.78378 155.689 3.68597 156.339 3.61723C156.97 3.55048 157.802 3.516 158.838 3.516V2.516ZM154.672 2.98839C153.863 3.40871 153.602 4.40637 153.602 5.576H154.602C154.602 4.44163 154.875 4.00996 155.133 3.87561L154.672 2.98839ZM153.602 5.576V20.072H154.602V5.576H153.602ZM153.602 20.072C153.602 21.3919 153.927 22.4653 154.827 22.9452L155.298 22.0628C154.917 21.8601 154.602 21.3121 154.602 20.072H153.602ZM154.839 22.9512C155.239 23.1512 155.811 23.2789 156.508 23.3606C157.217 23.4437 158.102 23.484 159.158 23.484V22.484C158.124 22.484 157.281 22.4443 156.625 22.3674C155.957 22.2891 155.526 22.1768 155.286 22.0568L154.839 22.9512ZM158.704 22.7745L158.512 23.1905L159.42 23.6095L159.612 23.1935L158.704 22.7745ZM158.966 22.9H146.39V23.9H158.966V22.9ZM146.831 23.6371L147.055 23.2211L146.174 22.747L145.95 23.163L146.831 23.6371Z" fill="#264B52" mask="url(#path-1-outside-1_441_522)"/>
</svg>
