<svg width="24" height="24" viewBox="0 0 24 24" fill="none" xmlns="http://www.w3.org/2000/svg">
<path d="M12 19.6544L11.242 18.9694C9.61 17.4787 8.26 16.2024 7.192 15.1404C6.124 14.0791 5.281 13.1431 4.663 12.3324C4.04567 11.5211 3.614 10.7874 3.368 10.1314C3.12267 9.47472 3 8.81439 3 8.15039C3 6.87839 3.432 5.81039 4.296 4.94639C5.16 4.08239 6.228 3.65039 7.5 3.65039C8.38 3.65039 9.205 3.87539 9.975 4.32539C10.745 4.77539 11.42 5.42972 12 6.28839C12.58 5.42972 13.255 4.77539 14.025 4.32539C14.795 3.87539 15.62 3.65039 16.5 3.65039C17.772 3.65039 18.84 4.08239 19.704 4.94639C20.568 5.81039 21 6.87839 21 8.15039C21 8.81439 20.8773 9.47439 20.632 10.1304C20.386 10.7871 19.9543 11.5211 19.337 12.3324C18.719 13.1431 17.879 14.0791 16.817 15.1404C15.7557 16.2024 14.4023 17.4791 12.757 18.9704L12 19.6544ZM12 18.3004C13.6 16.8537 14.9167 15.6151 15.95 14.5844C16.9833 13.5531 17.8 12.6581 18.4 11.8994C19 11.1407 19.4167 10.4691 19.65 9.88439C19.8833 9.29906 20 8.72106 20 8.15039C20 7.15039 19.6667 6.31706 19 5.65039C18.3333 4.98372 17.5 4.65039 16.5 4.65039C15.704 4.65039 14.9693 4.87772 14.296 5.33239C13.6227 5.78639 13.02 6.47072 12.488 7.38539H11.512C10.9667 6.45872 10.3607 5.77106 9.694 5.32239C9.02733 4.87439 8.296 4.65039 7.5 4.65039C6.51333 4.65039 5.68333 4.98372 5.01 5.65039C4.33667 6.31706 4 7.15039 4 8.15039C4 8.72106 4.11667 9.29906 4.35 9.88439C4.58333 10.4697 5 11.1414 5.6 11.8994C6.2 12.6574 7.01667 13.5491 8.05 14.5744C9.08333 15.5997 10.4 16.8417 12 18.3004Z" fill="#264B52"/>
</svg>
