<svg width="19" height="18" viewBox="0 0 19 18" fill="none" xmlns="http://www.w3.org/2000/svg">
<path d="M17.625 4.5H13.5V4.125C13.5 3.03098 13.0654 1.98177 12.2918 1.20818C11.5182 0.434597 10.469 0 9.375 0C8.28098 0 7.23177 0.434597 6.45818 1.20818C5.6846 1.98177 5.25 3.03098 5.25 4.125V4.5H1.125C0.826631 4.5 0.540483 4.61853 0.329505 4.8295C0.118526 5.04048 0 5.32663 0 5.625V16.875C0 17.1734 0.118526 17.4595 0.329505 17.6705C0.540483 17.8815 0.826631 18 1.125 18H17.625C17.9234 18 18.2095 17.8815 18.4205 17.6705C18.6315 17.4595 18.75 17.1734 18.75 16.875V5.625C18.75 5.32663 18.6315 5.04048 18.4205 4.8295C18.2095 4.61853 17.9234 4.5 17.625 4.5ZM6 4.125C6 3.22989 6.35558 2.37145 6.98851 1.73851C7.62145 1.10558 8.47989 0.75 9.375 0.75C10.2701 0.75 11.1285 1.10558 11.7615 1.73851C12.3944 2.37145 12.75 3.22989 12.75 4.125V4.5H6V4.125ZM18 16.875C18 16.9745 17.9605 17.0698 17.8902 17.1402C17.8198 17.2105 17.7245 17.25 17.625 17.25H1.125C1.02554 17.25 0.930161 17.2105 0.859835 17.1402C0.789509 17.0698 0.75 16.9745 0.75 16.875V5.625C0.75 5.52554 0.789509 5.43016 0.859835 5.35983C0.930161 5.28951 1.02554 5.25 1.125 5.25H5.25V7.125C5.25 7.22446 5.28951 7.31984 5.35983 7.39017C5.43016 7.46049 5.52554 7.5 5.625 7.5C5.72446 7.5 5.81984 7.46049 5.89017 7.39017C5.96049 7.31984 6 7.22446 6 7.125V5.25H12.75V7.125C12.75 7.22446 12.7895 7.31984 12.8598 7.39017C12.9302 7.46049 13.0255 7.5 13.125 7.5C13.2245 7.5 13.3198 7.46049 13.3902 7.39017C13.4605 7.31984 13.5 7.22446 13.5 7.125V5.25H17.625C17.7245 5.25 17.8198 5.28951 17.8902 5.35983C17.9605 5.43016 18 5.52554 18 5.625V16.875Z" fill="#264B52"/>
</svg>
