<svg width="19" height="18" viewBox="0 0 19 18" fill="none" xmlns="http://www.w3.org/2000/svg">
<path d="M18.6915 17.4388C17.1427 14.7613 14.6602 12.9332 11.784 12.2741C13.1507 11.7141 14.2806 10.697 14.9806 9.3964C15.6806 8.09582 15.9073 6.59253 15.622 5.14336C15.3366 3.69418 14.5569 2.38906 13.4161 1.45096C12.2753 0.51286 10.8441 0 9.36709 0C7.89009 0 6.45892 0.51286 5.31809 1.45096C4.17725 2.38906 3.39756 3.69418 3.1122 5.14336C2.82685 6.59253 3.05354 8.09582 3.75356 9.3964C4.45358 10.697 5.58348 11.7141 6.95022 12.2741C4.07772 12.9303 1.59147 14.7613 0.0427191 17.4388C-0.00211338 17.5245 -0.0120984 17.6242 0.0148501 17.7171C0.0417985 17.81 0.103596 17.8889 0.187334 17.9373C0.271072 17.9857 0.370273 17.9998 0.464217 17.9768C0.558161 17.9538 0.639581 17.8954 0.691469 17.8138C2.52334 14.6441 5.76897 12.7513 9.36709 12.7513C12.9652 12.7513 16.2108 14.6441 18.0427 17.8138C18.0756 17.8707 18.1229 17.918 18.1798 17.9509C18.2367 17.9839 18.3013 18.0012 18.3671 18.0013C18.433 18.0015 18.4977 17.984 18.5546 17.9507C18.6406 17.9009 18.7032 17.819 18.7289 17.723C18.7546 17.6271 18.7411 17.5248 18.6915 17.4388ZM3.74209 6.37628C3.74209 5.26376 4.07199 4.17623 4.69008 3.2512C5.30816 2.32617 6.18667 1.6052 7.2145 1.17946C8.24233 0.753719 9.37333 0.642325 10.4645 0.859367C11.5556 1.07641 12.5579 1.61214 13.3446 2.39881C14.1312 3.18548 14.667 4.18776 14.884 5.2789C15.1011 6.37004 14.9897 7.50104 14.5639 8.52888C14.1382 9.55671 13.4172 10.4352 12.4922 11.0533C11.5671 11.6714 10.4796 12.0013 9.36709 12.0013C7.87578 11.9995 6.44605 11.4064 5.39154 10.3518C4.33702 9.29733 3.74383 7.86759 3.74209 6.37628Z" fill="#264B52"/>
</svg>
